<svg width="17" height="16" viewBox="0 0 17 16" fill="none" xmlns="http://www.w3.org/2000/svg">
<path opacity="0.4" d="M8.79948 14.6667C12.4814 14.6667 15.4661 11.6819 15.4661 8.00004C15.4661 4.31814 12.4814 1.33337 8.79948 1.33337C5.11758 1.33337 2.13281 4.31814 2.13281 8.00004C2.13281 11.6819 5.11758 14.6667 8.79948 14.6667Z" fill="#61B42D"/>
<path d="M7.85375 10.3866C7.72042 10.3866 7.59375 10.3333 7.50042 10.2399L5.61375 8.35328C5.42042 8.15994 5.42042 7.83994 5.61375 7.64661C5.80708 7.45328 6.12708 7.45328 6.32042 7.64661L7.85375 9.17994L11.2804 5.75328C11.4738 5.55994 11.7938 5.55994 11.9871 5.75328C12.1804 5.94661 12.1804 6.26661 11.9871 6.45994L8.20708 10.2399C8.11375 10.3333 7.98708 10.3866 7.85375 10.3866Z" fill="#61B42D"/>
</svg>
