<svg width="24" height="24" viewBox="0 0 24 24" fill="none" xmlns="http://www.w3.org/2000/svg">
<rect width="24" height="24" rx="12" fill="#FFFFFE"/>
<path d="M18.6654 16.6667V18.6667H5.33203V16.6667C5.33203 16.3 5.63203 16 5.9987 16H17.9987C18.3654 16 18.6654 16.3 18.6654 16.6667Z" fill="#001010" stroke="#001010" stroke-width="1.5" stroke-miterlimit="10" stroke-linecap="round" stroke-linejoin="round"/>
<path opacity="0.6" d="M9.33464 11.3333H6.66797V15.9999H9.33464V11.3333Z" fill="#001010"/>
<path opacity="0.4" d="M11.9987 11.3333H9.33203V15.9999H11.9987V11.3333Z" fill="#001010"/>
<path opacity="0.6" d="M14.6667 11.3333H12V15.9999H14.6667V11.3333Z" fill="#001010"/>
<path opacity="0.4" d="M17.3346 11.3333H14.668V15.9999H17.3346V11.3333Z" fill="#001010"/>
<path d="M19.3346 19.1667H4.66797C4.39464 19.1667 4.16797 18.9401 4.16797 18.6667C4.16797 18.3934 4.39464 18.1667 4.66797 18.1667H19.3346C19.608 18.1667 19.8346 18.3934 19.8346 18.6667C19.8346 18.9401 19.608 19.1667 19.3346 19.1667Z" fill="#001010"/>
<path d="M18.2454 7.83329L12.2454 5.43331C12.112 5.37998 11.8854 5.37998 11.752 5.43331L5.75203 7.83329C5.5187 7.92663 5.33203 8.19996 5.33203 8.45329V10.6666C5.33203 11.0333 5.63203 11.3333 5.9987 11.3333H17.9987C18.3654 11.3333 18.6654 11.0333 18.6654 10.6666V8.45329C18.6654 8.19996 18.4787 7.92663 18.2454 7.83329ZM11.9987 9.66663C11.4454 9.66663 10.9987 9.21996 10.9987 8.66663C10.9987 8.11329 11.4454 7.66663 11.9987 7.66663C12.552 7.66663 12.9987 8.11329 12.9987 8.66663C12.9987 9.21996 12.552 9.66663 11.9987 9.66663Z" fill="#001010"/>
</svg>
