<svg width="42" height="42" viewBox="0 0 42 42" fill="none" xmlns="http://www.w3.org/2000/svg">
<rect width="42" height="42" rx="21" fill="white"/>
<path opacity="0.4" d="M30.1673 19.8633C30.1673 19.4325 29.819 19.075 29.379 19.075H12.6223C12.1823 19.075 11.834 19.4233 11.834 19.8633C11.834 25.2625 15.6015 29.03 21.0007 29.03C26.3998 29.03 30.1673 25.2533 30.1673 19.8633Z" fill="#001010"/>
<path d="M21.4212 24.575L24.0337 21.9716C24.2995 21.7058 24.2995 21.2658 24.0337 21C23.7679 20.7341 23.3279 20.7341 23.062 21L21.632 22.43V13.6575C21.632 13.2816 21.3204 12.97 20.9445 12.97C20.5687 12.97 20.257 13.2816 20.257 13.6575V22.43L18.8179 21C18.552 20.7341 18.112 20.7341 17.8462 21C17.7087 21.1375 17.6445 21.3116 17.6445 21.4858C17.6445 21.66 17.7087 21.8341 17.8462 21.9716L20.4587 24.575C20.7245 24.85 21.1554 24.85 21.4212 24.575Z" fill="#001010"/>
</svg>
