<svg width="24" height="24" viewBox="0 0 24 24" fill="none" xmlns="http://www.w3.org/2000/svg">
<rect width="24" height="24" rx="12" fill="#FFFFFE"/>
<g clip-path="url(#clip0_2547_27312)">
<path d="M12 10.5454V13.6436H16.3054C16.1164 14.64 15.549 15.4836 14.6981 16.0509L17.2945 18.0655C18.8072 16.6691 19.68 14.6182 19.68 12.1819C19.68 11.6146 19.6291 11.0691 19.5345 10.5455L12 10.5454Z" fill="#4285F4"/>
<path d="M7.51771 13.5227L6.93214 13.971L4.85938 15.5855C6.17574 18.1964 8.87372 20 12.001 20C14.1609 20 15.9718 19.2873 17.2955 18.0655L14.6991 16.0509C13.9864 16.5309 13.0773 16.8219 12.001 16.8219C9.92098 16.8219 8.15376 15.4183 7.52098 13.5273L7.51771 13.5227Z" fill="#34A853"/>
<path d="M4.85812 8.41455C4.31269 9.49087 4 10.7054 4 12C4 13.2945 4.31269 14.509 4.85812 15.5854C4.85812 15.5926 7.51998 13.5199 7.51998 13.5199C7.35998 13.0399 7.26541 12.5309 7.26541 11.9999C7.26541 11.4689 7.35998 10.9598 7.51998 10.4798L4.85812 8.41455Z" fill="#FBBC05"/>
<path d="M12.0011 7.18545C13.1793 7.18545 14.2266 7.59271 15.0629 8.37818L17.3538 6.0873C15.9647 4.79278 14.1612 4 12.0011 4C8.87388 4 6.17574 5.79636 4.85938 8.41455L7.52116 10.48C8.15385 8.58908 9.92114 7.18545 12.0011 7.18545Z" fill="#EA4335"/>
</g>
<defs>
<clipPath id="clip0_2547_27312">
<rect width="16" height="16" fill="white" transform="translate(4 4)"/>
</clipPath>
</defs>
</svg>
