<svg width="16" height="16" viewBox="0 0 16 16" fill="none" xmlns="http://www.w3.org/2000/svg">
<path opacity="0.4" d="M7.99121 1.66663H7.99805C10.1157 1.66663 12.469 2.86632 13.1924 5.48596L13.2568 5.74377C13.9303 8.71381 12.2755 11.3023 10.5176 13.1031L10.165 13.4528L10.1631 13.4547C9.55997 14.0406 8.77966 14.3336 7.99805 14.3336C7.26581 14.3336 6.53332 14.0764 5.94141 13.5602L5.8252 13.4528H5.82422C3.9455 11.6462 2.01446 8.90592 2.73242 5.73792C3.3683 2.94004 5.81062 1.66672 7.99121 1.66663Z" fill="#001010" stroke="#001010"/>
<path d="M7.99805 5.27332C8.88157 5.27332 9.59842 5.98945 9.59863 6.87292C9.59863 7.75658 8.8817 8.47351 7.99805 8.47351C7.11457 8.4733 6.39844 7.75645 6.39844 6.87292C6.39865 5.98958 7.1147 5.27353 7.99805 5.27332Z" fill="#001010" stroke="#001010"/>
</svg>
