<svg width="17" height="16" viewBox="0 0 17 16" fill="none" xmlns="http://www.w3.org/2000/svg">
<path opacity="0.4" d="M13.0351 13.12C12.6684 14.06 11.7751 14.6667 10.7684 14.6667H6.83508C5.82174 14.6667 4.93508 14.06 4.56841 13.12C4.20174 12.1733 4.45508 11.1267 5.20174 10.4467L7.90174 8H9.70841L12.4017 10.4467C13.1484 11.1267 13.3951 12.1733 13.0351 13.12Z" fill="#5F4B95"/>
<path d="M10.0128 12.0933H7.58615C7.33281 12.0933 7.13281 11.8866 7.13281 11.64C7.13281 11.3866 7.33948 11.1866 7.58615 11.1866H10.0128C10.2661 11.1866 10.4661 11.3933 10.4661 11.64C10.4661 11.8866 10.2595 12.0933 10.0128 12.0933Z" fill="#5F4B95"/>
<path d="M13.0358 2.88004C12.6692 1.94004 11.7758 1.33337 10.7692 1.33337H6.83585C5.82918 1.33337 4.93585 1.94004 4.56918 2.88004C4.20918 3.82671 4.45585 4.87337 5.20918 5.55337L7.90252 8.00004H9.70918L12.4025 5.55337C13.1492 4.87337 13.3958 3.82671 13.0358 2.88004ZM10.0158 4.82004H7.58918C7.33585 4.82004 7.13585 4.61337 7.13585 4.36671C7.13585 4.12004 7.34252 3.91337 7.58918 3.91337H10.0158C10.2692 3.91337 10.4692 4.12004 10.4692 4.36671C10.4692 4.61337 10.2625 4.82004 10.0158 4.82004Z" fill="#5F4B95"/>
</svg>
