<svg width="17" height="16" viewBox="0 0 17 16" fill="none" xmlns="http://www.w3.org/2000/svg">
<mask id="path-1-inside-1_784_1156" fill="white">
<path d="M10.5 13.78C10.3734 13.78 10.2467 13.7333 10.1467 13.6333L5.80002 9.28668C5.09335 8.58001 5.09335 7.42001 5.80002 6.71335L10.1467 2.36668C10.34 2.17335 10.66 2.17335 10.8534 2.36668C11.0467 2.56001 11.0467 2.88001 10.8534 3.07335L6.50669 7.42001C6.18669 7.74001 6.18669 8.26001 6.50669 8.58001L10.8534 12.9267C11.0467 13.12 11.0467 13.44 10.8534 13.6333C10.7534 13.7267 10.6267 13.78 10.5 13.78Z"/>
</mask>
<path d="M10.5 13.78C10.3734 13.78 10.2467 13.7333 10.1467 13.6333L5.80002 9.28668C5.09335 8.58001 5.09335 7.42001 5.80002 6.71335L10.1467 2.36668C10.34 2.17335 10.66 2.17335 10.8534 2.36668C11.0467 2.56001 11.0467 2.88001 10.8534 3.07335L6.50669 7.42001C6.18669 7.74001 6.18669 8.26001 6.50669 8.58001L10.8534 12.9267C11.0467 13.12 11.0467 13.44 10.8534 13.6333C10.7534 13.7267 10.6267 13.78 10.5 13.78Z" fill="#011F0F"/>
<path d="M10.1467 13.6333L10.8538 12.9262L10.1467 13.6333ZM5.80002 9.28668L5.09291 9.99379H5.09291L5.80002 9.28668ZM5.80002 6.71335L5.09291 6.00624L5.09291 6.00624L5.80002 6.71335ZM10.1467 2.36668L10.8538 3.07379V3.07379L10.1467 2.36668ZM10.8534 3.07335L10.1462 2.36624V2.36624L10.8534 3.07335ZM6.50669 7.42001L7.21379 8.12712L6.50669 7.42001ZM6.50669 8.58001L5.79958 9.28712H5.79958L6.50669 8.58001ZM10.8534 12.9267L11.5605 12.2196V12.2196L10.8534 12.9267ZM10.8534 13.6333L11.5357 14.3644L11.5483 14.3526L11.5605 14.3405L10.8534 13.6333ZM10.5 13.78V12.78C10.6243 12.78 10.7564 12.8288 10.8538 12.9262L10.1467 13.6333L9.43958 14.3405C9.737 14.6379 10.1224 14.78 10.5 14.78V13.78ZM10.1467 13.6333L10.8538 12.9262L6.50713 8.57957L5.80002 9.28668L5.09291 9.99379L9.43958 14.3405L10.1467 13.6333ZM5.80002 9.28668L6.50713 8.57957C6.19098 8.26343 6.19098 7.7366 6.50713 7.42045L5.80002 6.71335L5.09291 6.00624C3.99572 7.10343 3.99572 8.8966 5.09291 9.99379L5.80002 9.28668ZM5.80002 6.71335L6.50713 7.42045L10.8538 3.07379L10.1467 2.36668L9.43958 1.65957L5.09291 6.00624L5.80002 6.71335ZM10.1467 2.36668L10.8538 3.07379C10.6566 3.27098 10.3434 3.27098 10.1462 3.07379L10.8534 2.36668L11.5605 1.65957C10.9766 1.07572 10.0234 1.07572 9.43958 1.65957L10.1467 2.36668ZM10.8534 2.36668L10.1462 3.07379C9.94905 2.8766 9.94905 2.56343 10.1462 2.36624L10.8534 3.07335L11.5605 3.78045C12.1443 3.1966 12.1443 2.24343 11.5605 1.65957L10.8534 2.36668ZM10.8534 3.07335L10.1462 2.36624L5.79958 6.71291L6.50669 7.42001L7.21379 8.12712L11.5605 3.78045L10.8534 3.07335ZM6.50669 7.42001L5.79958 6.71291C5.08906 7.42343 5.08906 8.5766 5.79958 9.28712L6.50669 8.58001L7.21379 7.87291C7.28432 7.94343 7.28432 8.0566 7.21379 8.12712L6.50669 7.42001ZM6.50669 8.58001L5.79958 9.28712L10.1462 13.6338L10.8534 12.9267L11.5605 12.2196L7.21379 7.87291L6.50669 8.58001ZM10.8534 12.9267L10.1462 13.6338C9.94905 13.4366 9.94905 13.1234 10.1462 12.9262L10.8534 13.6333L11.5605 14.3405C12.1443 13.7566 12.1443 12.8034 11.5605 12.2196L10.8534 12.9267ZM10.8534 13.6333L10.171 12.9023C10.2355 12.8422 10.3464 12.78 10.5 12.78V13.78V14.78C10.907 14.78 11.2712 14.6112 11.5357 14.3644L10.8534 13.6333Z" fill="#011F0F" mask="url(#path-1-inside-1_784_1156)"/>
</svg>
