<svg width="32" height="33" viewBox="0 0 32 33" fill="none" xmlns="http://www.w3.org/2000/svg">
<path opacity="0.4" d="M28.8337 16.5C28.8337 23.5877 23.088 29.3334 16.0003 29.3334C8.91267 29.3334 3.16699 23.5877 3.16699 16.5C3.16699 9.41237 8.91267 3.66669 16.0003 3.66669C23.088 3.66669 28.8337 9.41237 28.8337 16.5Z" fill="#866AD2" stroke="#866AD2"/>
<path d="M12.5398 16H13.7469H20.6669C20.9374 16 21.1669 16.2295 21.1669 16.5C21.1669 16.7705 20.9374 17 20.6669 17H13.7469H12.5398L13.3934 17.8536L15.6867 20.1469C15.8781 20.3383 15.8781 20.6617 15.6867 20.8531C15.5854 20.9544 15.4615 21 15.3336 21C15.2057 21 15.0818 20.9544 14.9805 20.8531L10.9805 16.8531L10.6269 17.2067L10.9805 16.8531C10.7891 16.6617 10.7891 16.3383 10.9805 16.1469L14.9805 12.1469L14.6269 11.7934L14.9805 12.1469C15.1719 11.9555 15.4953 11.9555 15.6867 12.1469C15.8781 12.3383 15.8781 12.6617 15.6867 12.8531L13.3934 15.1465L12.5398 16Z" fill="#866AD2" stroke="#866AD2"/>
</svg>
