<svg width="16" height="16" viewBox="0 0 16 16" fill="none" xmlns="http://www.w3.org/2000/svg">
<path d="M14.6663 12.6667V14.6667H1.33301V12.6667C1.33301 12.3 1.63301 12 1.99967 12H13.9997C14.3663 12 14.6663 12.3 14.6663 12.6667Z" fill="#001010" stroke="#292D32" stroke-width="1.5" stroke-miterlimit="10" stroke-linecap="round" stroke-linejoin="round"/>
<path opacity="0.6" d="M5.33366 7.33337H2.66699V12H5.33366V7.33337Z" fill="#001010"/>
<path opacity="0.4" d="M7.99967 7.33337H5.33301V12H7.99967V7.33337Z" fill="#001010"/>
<path opacity="0.6" d="M10.6667 7.33337H8V12H10.6667V7.33337Z" fill="#001010"/>
<path opacity="0.4" d="M13.3337 7.33337H10.667V12H13.3337V7.33337Z" fill="#001010"/>
<path d="M15.3337 15.1666H0.666992C0.393659 15.1666 0.166992 14.94 0.166992 14.6666C0.166992 14.3933 0.393659 14.1666 0.666992 14.1666H15.3337C15.607 14.1666 15.8337 14.3933 15.8337 14.6666C15.8337 14.94 15.607 15.1666 15.3337 15.1666Z" fill="#292D32"/>
<path d="M14.2463 3.83329L8.24634 1.43331C8.113 1.37998 7.88634 1.37998 7.75301 1.43331L1.75301 3.83329C1.51968 3.92663 1.33301 4.19996 1.33301 4.45329V6.66663C1.33301 7.03329 1.63301 7.33329 1.99967 7.33329H13.9997C14.3663 7.33329 14.6663 7.03329 14.6663 6.66663V4.45329C14.6663 4.19996 14.4797 3.92663 14.2463 3.83329ZM7.99967 5.66663C7.44634 5.66663 6.99967 5.21996 6.99967 4.66663C6.99967 4.11329 7.44634 3.66663 7.99967 3.66663C8.55301 3.66663 8.99967 4.11329 8.99967 4.66663C8.99967 5.21996 8.55301 5.66663 7.99967 5.66663Z" fill="#292D32"/>
</svg>
