<svg width="24" height="24" viewBox="0 0 24 24" fill="none" xmlns="http://www.w3.org/2000/svg">
<path d="M14.2538 5.75391C14.3485 5.65917 14.5116 5.65917 14.6063 5.75391L20.6766 11.8232C20.7714 11.918 20.7714 12.082 20.6766 12.1768L14.6063 18.2461C14.555 18.2974 14.4941 18.3203 14.4296 18.3203C14.3652 18.3202 14.305 18.2973 14.2538 18.2461C14.1592 18.1513 14.1591 17.9883 14.2538 17.8936L20.1473 12L14.2538 6.10645C14.159 6.01171 14.159 5.84864 14.2538 5.75391Z" fill="#7A60BF" stroke="#7A60BF"/>
<path d="M3.5 11.75H20.3301C20.4639 11.75 20.5801 11.8662 20.5801 12C20.5801 12.1338 20.4639 12.25 20.3301 12.25H3.5C3.36614 12.25 3.25 12.1339 3.25 12C3.25 11.8661 3.36614 11.75 3.5 11.75Z" fill="#7A60BF" stroke="#7A60BF"/>
</svg>
