<svg width="16" height="16" viewBox="0 0 16 16" fill="none" xmlns="http://www.w3.org/2000/svg">
<path d="M11.1681 2.37337V1.33337C11.1681 1.06004 10.9415 0.833374 10.6681 0.833374C10.3948 0.833374 10.1681 1.06004 10.1681 1.33337V2.33337H5.83479V1.33337C5.83479 1.06004 5.60812 0.833374 5.33479 0.833374C5.06145 0.833374 4.83479 1.06004 4.83479 1.33337V2.37337C3.03479 2.54004 2.16145 3.61337 2.02812 5.20671C2.01479 5.40004 2.17479 5.56004 2.36145 5.56004H13.6415C13.8348 5.56004 13.9948 5.39337 13.9748 5.20671C13.8415 3.61337 12.9681 2.54004 11.1681 2.37337Z" fill="#001010"/>
<path opacity="0.4" d="M13.3333 6.56006C13.7 6.56006 14 6.86006 14 7.22673V11.3334C14 13.3334 13 14.6667 10.6667 14.6667H5.33333C3 14.6667 2 13.3334 2 11.3334V7.22673C2 6.86006 2.3 6.56006 2.66667 6.56006H13.3333Z" fill="#001010"/>
<path d="M5.66667 9.99996C5.49333 9.99996 5.32 9.92662 5.19333 9.80662C5.07333 9.67995 5 9.50662 5 9.33329C5 9.15996 5.07333 8.98663 5.19333 8.85996C5.38 8.6733 5.67333 8.61328 5.92 8.71995C6.00667 8.75328 6.08 8.79996 6.14 8.85996C6.26 8.98663 6.33333 9.15996 6.33333 9.33329C6.33333 9.50662 6.26 9.67995 6.14 9.80662C6.01333 9.92662 5.84 9.99996 5.66667 9.99996Z" fill="#001010"/>
<path d="M7.9987 9.99996C7.82536 9.99996 7.65203 9.92662 7.52537 9.80662C7.40537 9.67995 7.33203 9.50662 7.33203 9.33329C7.33203 9.15996 7.40537 8.98663 7.52537 8.85996C7.58537 8.79996 7.6587 8.75328 7.74536 8.71995C7.99203 8.61328 8.28536 8.6733 8.47203 8.85996C8.59203 8.98663 8.66536 9.15996 8.66536 9.33329C8.66536 9.50662 8.59203 9.67995 8.47203 9.80662C8.4387 9.83328 8.40537 9.85995 8.37203 9.88661C8.33203 9.91328 8.29203 9.9333 8.25203 9.94663C8.21203 9.96663 8.17203 9.97996 8.13203 9.98663C8.08537 9.9933 8.04536 9.99996 7.9987 9.99996Z" fill="#001010"/>
<path d="M10.3346 9.99997C10.1613 9.99997 9.98797 9.92663 9.8613 9.80663C9.7413 9.67996 9.66797 9.50663 9.66797 9.3333C9.66797 9.15997 9.7413 8.98664 9.8613 8.85997C9.92797 8.79997 9.99463 8.75329 10.0813 8.71996C10.2013 8.66662 10.3346 8.65329 10.468 8.67996C10.508 8.68663 10.548 8.69996 10.588 8.71996C10.628 8.73329 10.668 8.75331 10.708 8.77998C10.7413 8.80664 10.7746 8.83331 10.808 8.85997C10.928 8.98664 11.0013 9.15997 11.0013 9.3333C11.0013 9.50663 10.928 9.67996 10.808 9.80663C10.7746 9.83329 10.7413 9.85996 10.708 9.88662C10.668 9.91329 10.628 9.93331 10.588 9.94664C10.548 9.96664 10.508 9.97997 10.468 9.98664C10.4213 9.99331 10.3746 9.99997 10.3346 9.99997Z" fill="#001010"/>
<path d="M5.66667 12.3333C5.58 12.3333 5.49333 12.3134 5.41333 12.28C5.32667 12.2467 5.26 12.2 5.19333 12.14C5.07333 12.0133 5 11.84 5 11.6667C5 11.4933 5.07333 11.32 5.19333 11.1933C5.26 11.1333 5.32667 11.0867 5.41333 11.0533C5.53333 11 5.66667 10.9867 5.8 11.0133C5.84 11.02 5.88 11.0333 5.92 11.0533C5.96 11.0667 6 11.0867 6.04 11.1134C6.07333 11.14 6.10667 11.1667 6.14 11.1933C6.26 11.32 6.33333 11.4933 6.33333 11.6667C6.33333 11.84 6.26 12.0133 6.14 12.14C6.10667 12.1667 6.07333 12.2 6.04 12.22C6 12.2467 5.96 12.2667 5.92 12.28C5.88 12.3 5.84 12.3133 5.8 12.32C5.75333 12.3267 5.71333 12.3333 5.66667 12.3333Z" fill="#001010"/>
<path d="M7.9987 12.3333C7.82536 12.3333 7.65203 12.26 7.52537 12.14C7.40537 12.0133 7.33203 11.84 7.33203 11.6666C7.33203 11.4933 7.40537 11.32 7.52537 11.1933C7.77203 10.9466 8.22536 10.9466 8.47203 11.1933C8.59203 11.32 8.66536 11.4933 8.66536 11.6666C8.66536 11.84 8.59203 12.0133 8.47203 12.14C8.34536 12.26 8.17203 12.3333 7.9987 12.3333Z" fill="#001010"/>
<path d="M10.3346 12.3333C10.1613 12.3333 9.98797 12.26 9.8613 12.14C9.7413 12.0133 9.66797 11.84 9.66797 11.6666C9.66797 11.4933 9.7413 11.32 9.8613 11.1933C10.108 10.9466 10.5613 10.9466 10.808 11.1933C10.928 11.32 11.0013 11.4933 11.0013 11.6666C11.0013 11.84 10.928 12.0133 10.808 12.14C10.6813 12.26 10.508 12.3333 10.3346 12.3333Z" fill="#001010"/>
</svg>
