<svg width="16" height="16" viewBox="0 0 16 16" fill="none" xmlns="http://www.w3.org/2000/svg">
<path d="M11.1681 2.37325V1.33325C11.1681 1.05992 10.9415 0.833252 10.6681 0.833252C10.3948 0.833252 10.1681 1.05992 10.1681 1.33325V2.33325H5.83479V1.33325C5.83479 1.05992 5.60812 0.833252 5.33479 0.833252C5.06145 0.833252 4.83479 1.05992 4.83479 1.33325V2.37325C3.03479 2.53992 2.16145 3.61325 2.02812 5.20658C2.01479 5.39992 2.17479 5.55992 2.36145 5.55992H13.6415C13.8348 5.55992 13.9948 5.39325 13.9748 5.20658C13.8415 3.61325 12.9681 2.53992 11.1681 2.37325Z" fill="#001010"/>
<path opacity="0.4" d="M13.3333 6.56006C13.7 6.56006 14 6.86006 14 7.22673V11.3334C14 13.3334 13 14.6667 10.6667 14.6667H5.33333C3 14.6667 2 13.3334 2 11.3334V7.22673C2 6.86006 2.3 6.56006 2.66667 6.56006H13.3333Z" fill="#001010"/>
<path d="M5.66667 10.0001C5.49333 10.0001 5.32 9.92674 5.19333 9.80674C5.07333 9.68007 5 9.50674 5 9.33341C5 9.16008 5.07333 8.98675 5.19333 8.86008C5.38 8.67342 5.67333 8.6134 5.92 8.72007C6.00667 8.7534 6.08 8.80008 6.14 8.86008C6.26 8.98675 6.33333 9.16008 6.33333 9.33341C6.33333 9.50674 6.26 9.68007 6.14 9.80674C6.01333 9.92674 5.84 10.0001 5.66667 10.0001Z" fill="#001010"/>
<path d="M7.9987 10.0001C7.82536 10.0001 7.65203 9.92674 7.52537 9.80674C7.40537 9.68007 7.33203 9.50674 7.33203 9.33341C7.33203 9.16008 7.40537 8.98675 7.52537 8.86008C7.58537 8.80008 7.6587 8.7534 7.74536 8.72007C7.99203 8.6134 8.28536 8.67342 8.47203 8.86008C8.59203 8.98675 8.66536 9.16008 8.66536 9.33341C8.66536 9.50674 8.59203 9.68007 8.47203 9.80674C8.4387 9.83341 8.40537 9.86007 8.37203 9.88674C8.33203 9.9134 8.29203 9.93342 8.25203 9.94675C8.21203 9.96675 8.17203 9.98009 8.13203 9.98675C8.08537 9.99342 8.04536 10.0001 7.9987 10.0001Z" fill="#001010"/>
<path d="M10.3346 10.0001C10.1613 10.0001 9.98797 9.92675 9.8613 9.80675C9.7413 9.68008 9.66797 9.50676 9.66797 9.33342C9.66797 9.16009 9.7413 8.98676 9.8613 8.86009C9.92797 8.80009 9.99463 8.75341 10.0813 8.72008C10.2013 8.66675 10.3346 8.65342 10.468 8.68008C10.508 8.68675 10.548 8.70008 10.588 8.72008C10.628 8.73341 10.668 8.75343 10.708 8.7801C10.7413 8.80676 10.7746 8.83343 10.808 8.86009C10.928 8.98676 11.0013 9.16009 11.0013 9.33342C11.0013 9.50676 10.928 9.68008 10.808 9.80675C10.7746 9.83342 10.7413 9.86008 10.708 9.88675C10.668 9.91341 10.628 9.93343 10.588 9.94676C10.548 9.96676 10.508 9.9801 10.468 9.98676C10.4213 9.99343 10.3746 10.0001 10.3346 10.0001Z" fill="#001010"/>
<path d="M5.66667 12.3333C5.58 12.3333 5.49333 12.3134 5.41333 12.28C5.32667 12.2467 5.26 12.2 5.19333 12.14C5.07333 12.0133 5 11.84 5 11.6667C5 11.4933 5.07333 11.32 5.19333 11.1933C5.26 11.1333 5.32667 11.0867 5.41333 11.0533C5.53333 11 5.66667 10.9867 5.8 11.0133C5.84 11.02 5.88 11.0333 5.92 11.0533C5.96 11.0667 6 11.0867 6.04 11.1134C6.07333 11.14 6.10667 11.1667 6.14 11.1933C6.26 11.32 6.33333 11.4933 6.33333 11.6667C6.33333 11.84 6.26 12.0133 6.14 12.14C6.10667 12.1667 6.07333 12.2 6.04 12.22C6 12.2467 5.96 12.2667 5.92 12.28C5.88 12.3 5.84 12.3133 5.8 12.32C5.75333 12.3267 5.71333 12.3333 5.66667 12.3333Z" fill="#001010"/>
<path d="M7.9987 12.3333C7.82536 12.3333 7.65203 12.26 7.52537 12.14C7.40537 12.0133 7.33203 11.84 7.33203 11.6666C7.33203 11.4933 7.40537 11.32 7.52537 11.1933C7.77203 10.9466 8.22536 10.9466 8.47203 11.1933C8.59203 11.32 8.66536 11.4933 8.66536 11.6666C8.66536 11.84 8.59203 12.0133 8.47203 12.14C8.34536 12.26 8.17203 12.3333 7.9987 12.3333Z" fill="#001010"/>
<path d="M10.3346 12.3333C10.1613 12.3333 9.98797 12.26 9.8613 12.14C9.7413 12.0133 9.66797 11.84 9.66797 11.6666C9.66797 11.4933 9.7413 11.32 9.8613 11.1933C10.108 10.9466 10.5613 10.9466 10.808 11.1933C10.928 11.32 11.0013 11.4933 11.0013 11.6666C11.0013 11.84 10.928 12.0133 10.808 12.14C10.6813 12.26 10.508 12.3333 10.3346 12.3333Z" fill="#001010"/>
</svg>
