<svg width="16" height="17" viewBox="0 0 16 17" fill="none" xmlns="http://www.w3.org/2000/svg">
<path opacity="0.4" d="M12.4466 1.83337H11.18C9.72663 1.83337 8.95996 2.60004 8.95996 4.05337V5.32004C8.95996 6.77337 9.72663 7.54004 11.18 7.54004H12.4466C13.9 7.54004 14.6666 6.77337 14.6666 5.32004V4.05337C14.6666 2.60004 13.9 1.83337 12.4466 1.83337Z" fill="#001010"/>
<path opacity="0.4" d="M4.82658 9.45337H3.55992C2.09992 9.45337 1.33325 10.22 1.33325 11.6734V12.94C1.33325 14.4 2.09992 15.1667 3.55325 15.1667H4.81992C6.27325 15.1667 7.03992 14.4 7.03992 12.9467V11.68C7.04659 10.22 6.27992 9.45337 4.82658 9.45337Z" fill="#001010"/>
<path d="M4.19325 7.55337C5.77279 7.55337 7.05325 6.27291 7.05325 4.69337C7.05325 3.11384 5.77279 1.83337 4.19325 1.83337C2.61372 1.83337 1.33325 3.11384 1.33325 4.69337C1.33325 6.27291 2.61372 7.55337 4.19325 7.55337Z" fill="#001010"/>
<path d="M11.8068 15.1667C13.3863 15.1667 14.6668 13.8862 14.6668 12.3067C14.6668 10.7271 13.3863 9.44666 11.8068 9.44666C10.2272 9.44666 8.94678 10.7271 8.94678 12.3067C8.94678 13.8862 10.2272 15.1667 11.8068 15.1667Z" fill="#001010"/>
</svg>
