<svg width="32" height="33" viewBox="0 0 32 33" fill="none" xmlns="http://www.w3.org/2000/svg">
<path opacity="0.4" d="M28.8337 16.5C28.8337 23.5877 23.088 29.3334 16.0003 29.3334C8.91267 29.3334 3.16699 23.5877 3.16699 16.5C3.16699 9.41237 8.91267 3.66669 16.0003 3.66669C23.088 3.66669 28.8337 9.41237 28.8337 16.5Z" fill="#866AD2" stroke="#866AD2"/>
<path d="M17.0602 16.1464L16.7067 16.5L17.0602 16.8535L20.1269 19.9202C20.3183 20.1116 20.3183 20.435 20.1269 20.6264C20.0256 20.7277 19.9017 20.7733 19.7738 20.7733C19.6459 20.7733 19.522 20.7277 19.4207 20.6264L16.354 17.5598L16.0005 17.2062L15.6469 17.5598L12.5802 20.6264L12.9216 20.9678L12.5802 20.6264C12.479 20.7277 12.355 20.7733 12.2271 20.7733C12.0993 20.7733 11.9753 20.7277 11.874 20.6264L11.5242 20.9762L11.874 20.6264C11.6826 20.435 11.6826 20.1116 11.874 19.9202L14.9407 16.8535L15.2942 16.5L14.9407 16.1464L11.874 13.0798C11.6826 12.8884 11.6826 12.5649 11.874 12.3735C12.0654 12.1821 12.3888 12.1821 12.5802 12.3735L15.6469 15.4402L16.0005 15.7938L16.354 15.4402L19.4207 12.3735C19.6121 12.1821 19.9355 12.1821 20.1269 12.3735L20.4795 12.0209L20.1269 12.3735C20.3183 12.5649 20.3183 12.8884 20.1269 13.0798L20.4805 13.4333L20.1269 13.0798L17.0602 16.1464Z" fill="#866AD2" stroke="#866AD2"/>
</svg>
