<svg width="48" height="48" viewBox="0 0 48 48" fill="none" xmlns="http://www.w3.org/2000/svg">
<path opacity="0.4" d="M43.5 24C43.5 34.7696 34.7696 43.5 24 43.5C13.2304 43.5 4.5 34.7696 4.5 24C4.5 13.2304 13.2304 4.5 24 4.5C34.7696 4.5 43.5 13.2304 43.5 24Z" fill="#FFFFFE" stroke="#FFFFFE"/>
<path d="M25.7664 23.6464L25.4129 24L25.7664 24.3535L30.3664 28.9535C30.7512 29.3383 30.7512 29.9817 30.3664 30.3664C30.1651 30.5677 29.9145 30.66 29.66 30.66C29.4054 30.66 29.1548 30.5677 28.9535 30.3664L24.3535 25.7664L24 25.4129L23.6464 25.7664L19.0464 30.3664C18.8451 30.5677 18.5945 30.66 18.34 30.66C18.0854 30.66 17.8348 30.5677 17.6335 30.3664L17.2812 30.7187L17.6335 30.3664C17.2488 29.9817 17.2488 29.3383 17.6335 28.9535L22.2335 24.3535L22.5871 24L22.2335 23.6464L17.6335 19.0464L17.28 19.4L17.6335 19.0464C17.2488 18.6617 17.2488 18.0183 17.6335 17.6335C18.0183 17.2488 18.6617 17.2488 19.0464 17.6335L19.4 17.28L19.0464 17.6335L23.6464 22.2335L24 22.5871L24.3535 22.2335L28.9535 17.6335C29.3383 17.2488 29.9817 17.2488 30.3664 17.6335C30.7512 18.0183 30.7512 18.6617 30.3664 19.0464L25.7664 23.6464Z" fill="#FFFFFE" stroke="#FFFFFE"/>
</svg>
