<svg width="17" height="16" viewBox="0 0 17 16" fill="none" xmlns="http://www.w3.org/2000/svg">
<g id="vuesax/bulk/crown">
<g id="crown">
<path id="Vector" opacity="0.4" d="M2.64094 4.08546L2.64268 4.08671L5.30882 5.993C5.30891 5.99307 5.30901 5.99314 5.3091 5.99321C5.92935 6.43763 6.812 6.17074 7.08134 5.45639L7.08166 5.45555L8.34166 2.09555L8.34167 2.09555L8.34276 2.09259C8.39553 1.94912 8.59813 1.94912 8.6509 2.09259L8.65089 2.09259L8.652 2.09555L9.91138 5.45389C9.91147 5.45414 9.91157 5.4544 9.91166 5.45466C10.1832 6.18522 11.0623 6.43109 11.6812 5.99556L11.6812 5.99557L11.6843 5.99338L14.3503 4.0872C14.3504 4.08715 14.3504 4.0871 14.3505 4.08705C14.4831 3.99282 14.6582 4.12342 14.6029 4.27784L14.6026 4.27851L11.8293 12.0452L11.8292 12.0451L11.8258 12.0552C11.8091 12.1055 11.7509 12.1533 11.6802 12.1533H5.32016C5.25181 12.1533 5.18647 12.1064 5.16416 12.0446C5.16414 12.0445 5.16412 12.0445 5.16409 12.0444L2.39137 4.27945C2.39134 4.27934 2.3913 4.27923 2.39126 4.27912C2.33459 4.11854 2.5145 3.99424 2.64094 4.08546Z" fill="#001010" stroke="#001010"/>
<g id="Vector_2">
<mask id="path-2-inside-1_1771_13337" fill="white">
<path d="M11.8337 14.6666H5.16699C4.89366 14.6666 4.66699 14.44 4.66699 14.1666C4.66699 13.8933 4.89366 13.6666 5.16699 13.6666H11.8337C12.107 13.6666 12.3337 13.8933 12.3337 14.1666C12.3337 14.44 12.107 14.6666 11.8337 14.6666Z"/>
</mask>
<path d="M11.8337 14.6666H5.16699C4.89366 14.6666 4.66699 14.44 4.66699 14.1666C4.66699 13.8933 4.89366 13.6666 5.16699 13.6666H11.8337C12.107 13.6666 12.3337 13.8933 12.3337 14.1666C12.3337 14.44 12.107 14.6666 11.8337 14.6666Z" fill="#001010"/>
<path d="M11.8337 13.6666H5.16699V15.6666H11.8337V13.6666ZM5.16699 13.6666C5.44594 13.6666 5.66699 13.8877 5.66699 14.1666H3.66699C3.66699 14.9922 4.34137 15.6666 5.16699 15.6666V13.6666ZM5.66699 14.1666C5.66699 14.4456 5.44594 14.6666 5.16699 14.6666V12.6666C4.34137 12.6666 3.66699 13.341 3.66699 14.1666H5.66699ZM5.16699 14.6666H11.8337V12.6666H5.16699V14.6666ZM11.8337 14.6666C11.5547 14.6666 11.3337 14.4456 11.3337 14.1666H13.3337C13.3337 13.341 12.6593 12.6666 11.8337 12.6666V14.6666ZM11.3337 14.1666C11.3337 13.8877 11.5547 13.6666 11.8337 13.6666V15.6666C12.6593 15.6666 13.3337 14.9922 13.3337 14.1666H11.3337Z" fill="#001010" mask="url(#path-2-inside-1_1771_13337)"/>
</g>
<path id="Vector_3" d="M10.1663 9.83337H6.83301C6.55967 9.83337 6.33301 9.60671 6.33301 9.33337C6.33301 9.06004 6.55967 8.83337 6.83301 8.83337H10.1663C10.4397 8.83337 10.6663 9.06004 10.6663 9.33337C10.6663 9.60671 10.4397 9.83337 10.1663 9.83337Z" fill="#001010"/>
</g>
</g>
</svg>
