<svg width="42" height="42" viewBox="0 0 42 42" fill="none" xmlns="http://www.w3.org/2000/svg">
<rect width="42" height="42" rx="21" fill="#F0F0F0"/>
<path d="M29.3135 14.7941C27.8377 14.6475 26.3619 14.5375 24.8769 14.455V14.4458L24.6752 13.2541C24.5377 12.4108 24.336 11.1458 22.191 11.1458H19.7894C17.6535 11.1458 17.4519 12.3558 17.3052 13.245L17.1127 14.4183C16.2602 14.4733 15.4077 14.5283 14.5552 14.6108L12.6852 14.7941C12.3002 14.8308 12.0252 15.17 12.0619 15.5458C12.0985 15.9216 12.4285 16.1966 12.8135 16.16L14.6835 15.9766C19.4869 15.5 24.3269 15.6833 29.1852 16.1691C29.2127 16.1691 29.231 16.1691 29.2585 16.1691C29.6069 16.1691 29.9094 15.9033 29.946 15.5458C29.9735 15.17 29.6985 14.8308 29.3135 14.7941Z" fill="#C7245A"/>
<path opacity="0.3991" d="M27.6271 17.4617C27.4071 17.2325 27.1046 17.1042 26.7929 17.1042H15.2063C14.8946 17.1042 14.5829 17.2325 14.3721 17.4617C14.1613 17.6909 14.0421 18.0025 14.0604 18.3234L14.6288 27.7284C14.7296 29.1217 14.8579 30.8634 18.0571 30.8634H23.9421C27.1413 30.8634 27.2696 29.1309 27.3704 27.7284L27.9388 18.3325C27.9571 18.0025 27.8379 17.6909 27.6271 17.4617Z" fill="#C7245A"/>
<path fill-rule="evenodd" clip-rule="evenodd" d="M18.7812 25.5833C18.7812 25.2036 19.0891 24.8958 19.4688 24.8958H22.5212C22.9009 24.8958 23.2087 25.2036 23.2087 25.5833C23.2087 25.963 22.9009 26.2708 22.5212 26.2708H19.4688C19.0891 26.2708 18.7812 25.963 18.7812 25.5833Z" fill="#C7245A"/>
<path fill-rule="evenodd" clip-rule="evenodd" d="M18.0215 21.9167C18.0215 21.537 18.3293 21.2292 18.709 21.2292H23.2923C23.672 21.2292 23.9798 21.537 23.9798 21.9167C23.9798 22.2964 23.672 22.6042 23.2923 22.6042H18.709C18.3293 22.6042 18.0215 22.2964 18.0215 21.9167Z" fill="#C7245A"/>
</svg>
