<svg width="22" height="22" viewBox="0 0 22 22" fill="none" xmlns="http://www.w3.org/2000/svg">
<g id="vuesax/bulk/import">
<g id="import">
<path id="Vector" opacity="0.4" d="M20.1663 9.86353C20.1663 9.4327 19.818 9.0752 19.378 9.0752H2.62134C2.18134 9.0752 1.83301 9.42353 1.83301 9.86353C1.83301 15.2627 5.60051 19.0302 10.9997 19.0302C16.3988 19.0302 20.1663 15.2535 20.1663 9.86353Z" fill="#001010"/>
<path id="Vector_2" d="M11.4212 14.5752L14.0337 11.9719C14.2995 11.706 14.2995 11.266 14.0337 11.0002C13.7679 10.7344 13.3279 10.7344 13.062 11.0002L11.632 12.4302V3.65771C11.632 3.28188 11.3204 2.97021 10.9445 2.97021C10.5687 2.97021 10.257 3.28188 10.257 3.65771V12.4302L8.81786 11.0002C8.55203 10.7344 8.11203 10.7344 7.8462 11.0002C7.7087 11.1377 7.64453 11.3119 7.64453 11.486C7.64453 11.6602 7.7087 11.8344 7.8462 11.9719L10.4587 14.5752C10.7245 14.8502 11.1554 14.8502 11.4212 14.5752Z" fill="#001010"/>
</g>
</g>
</svg>
