<svg width="16" height="16" viewBox="0 0 16 16" fill="none" xmlns="http://www.w3.org/2000/svg">
<g id="Frame">
<path id="Vector 4" d="M8 6L2.5 9.5L2 11L3 12H13.5L14 9.5L8 6Z" fill="#B0B5B5"/>
<path id="Vector" d="M8 6L2.686 8.952C2.47804 9.06749 2.30476 9.23651 2.18414 9.44154C2.06351 9.64656 1.99994 9.88012 2 10.118V10.6667C2 11.0203 2.14048 11.3594 2.39052 11.6095C2.64057 11.8595 2.97971 12 3.33333 12H4" stroke="#8A9191" stroke-width="0.833333" stroke-linecap="round" stroke-linejoin="round"/>
<path id="Vector_2" d="M12.0003 12H12.667C13.0206 12 13.3598 11.8595 13.6098 11.6095C13.8598 11.3594 14.0003 11.0203 14.0003 10.6667V10.118C14.0004 9.88012 13.9368 9.64656 13.8162 9.44154C13.6956 9.23651 13.5223 9.06749 13.3143 8.952L8.00033 6C7.02899 5.46 6.67166 4.44467 6.66699 3.33333C6.66699 2.97971 6.80747 2.64057 7.05752 2.39052C7.30757 2.14048 7.6467 2 8.00033 2C8.35395 2 8.69309 2.14048 8.94313 2.39052C9.19318 2.64057 9.33366 2.97971 9.33366 3.33333" stroke="#8A9191" stroke-width="0.833333" stroke-linecap="round" stroke-linejoin="round"/>
<path id="Vector_3" d="M4 11.9998C4 11.6462 4.14048 11.3071 4.39052 11.057C4.64057 10.807 4.97971 10.6665 5.33333 10.6665H10.6667C11.0203 10.6665 11.3594 10.807 11.6095 11.057C11.8595 11.3071 12 11.6462 12 11.9998V12.6665C12 13.0201 11.8595 13.3593 11.6095 13.6093C11.3594 13.8594 11.0203 13.9998 10.6667 13.9998H5.33333C4.97971 13.9998 4.64057 13.8594 4.39052 13.6093C4.14048 13.3593 4 13.0201 4 12.6665V11.9998Z" fill="#001010" stroke="black" stroke-width="0.833333" stroke-linecap="round" stroke-linejoin="round"/>
</g>
</svg>
