<svg width="14" height="14" viewBox="0 0 14 14" fill="none" xmlns="http://www.w3.org/2000/svg">
<path opacity="0.4" d="M7.00098 3.21838C9.51796 3.21845 11.5586 5.259 11.5586 7.776C11.5585 10.2929 9.51792 12.3336 7.00098 12.3336C4.48398 12.3336 2.44342 10.293 2.44336 7.776C2.44336 5.25896 4.48394 3.21838 7.00098 3.21838Z" fill="#8A9191" stroke="#8A9191"/>
<mask id="path-2-inside-1_1607_47345" fill="white">
<path d="M7 8.02079C6.76083 8.02079 6.5625 7.82246 6.5625 7.58329V4.66663C6.5625 4.42746 6.76083 4.22913 7 4.22913C7.23917 4.22913 7.4375 4.42746 7.4375 4.66663V7.58329C7.4375 7.82246 7.23917 8.02079 7 8.02079Z"/>
</mask>
<path d="M7 8.02079C6.76083 8.02079 6.5625 7.82246 6.5625 7.58329V4.66663C6.5625 4.42746 6.76083 4.22913 7 4.22913C7.23917 4.22913 7.4375 4.42746 7.4375 4.66663V7.58329C7.4375 7.82246 7.23917 8.02079 7 8.02079Z" fill="#8A9191"/>
<path d="M7 7.02079C7.31312 7.02079 7.5625 7.27017 7.5625 7.58329H5.5625C5.5625 8.37474 6.20855 9.02079 7 9.02079V7.02079ZM7.5625 7.58329V4.66663H5.5625V7.58329H7.5625ZM7.5625 4.66663C7.5625 4.97974 7.31312 5.22913 7 5.22913V3.22913C6.20855 3.22913 5.5625 3.87517 5.5625 4.66663H7.5625ZM7 5.22913C6.68688 5.22913 6.4375 4.97974 6.4375 4.66663H8.4375C8.4375 3.87517 7.79145 3.22913 7 3.22913V5.22913ZM6.4375 4.66663V7.58329H8.4375V4.66663H6.4375ZM6.4375 7.58329C6.4375 7.27017 6.68688 7.02079 7 7.02079V9.02079C7.79145 9.02079 8.4375 8.37474 8.4375 7.58329H6.4375Z" fill="#8A9191" mask="url(#path-2-inside-1_1607_47345)"/>
<mask id="path-4-inside-2_1607_47345" fill="white">
<path d="M8.6862 2.01246H5.31453C5.0812 2.01246 4.89453 1.82579 4.89453 1.59246C4.89453 1.35913 5.0812 1.16663 5.31453 1.16663H8.6862C8.91953 1.16663 9.1062 1.35329 9.1062 1.58663C9.1062 1.81996 8.91953 2.01246 8.6862 2.01246Z"/>
</mask>
<path d="M8.6862 2.01246H5.31453C5.0812 2.01246 4.89453 1.82579 4.89453 1.59246C4.89453 1.35913 5.0812 1.16663 5.31453 1.16663H8.6862C8.91953 1.16663 9.1062 1.35329 9.1062 1.58663C9.1062 1.81996 8.91953 2.01246 8.6862 2.01246Z" fill="#8A9191"/>
<path d="M8.6862 1.01246H5.31453V3.01246H8.6862V1.01246ZM5.31453 1.01246C5.63348 1.01246 5.89453 1.27351 5.89453 1.59246H3.89453C3.89453 2.37808 4.52891 3.01246 5.31453 3.01246V1.01246ZM5.89453 1.59246C5.89453 1.89337 5.65136 2.16663 5.31453 2.16663V0.166626C4.51104 0.166626 3.89453 0.824886 3.89453 1.59246H5.89453ZM5.31453 2.16663H8.6862V0.166626H5.31453V2.16663ZM8.6862 2.16663C8.36724 2.16663 8.1062 1.90558 8.1062 1.58663H10.1062C10.1062 0.801009 9.47182 0.166626 8.6862 0.166626V2.16663ZM8.1062 1.58663C8.1062 1.28572 8.34937 1.01246 8.6862 1.01246V3.01246C9.48969 3.01246 10.1062 2.3542 10.1062 1.58663H8.1062Z" fill="#8A9191" mask="url(#path-4-inside-2_1607_47345)"/>
</svg>
