<svg width="14" height="14" viewBox="0 0 14 14" fill="none" xmlns="http://www.w3.org/2000/svg">
<path opacity="0.4" d="M6.99414 1.52087H7C8.83196 1.52087 10.8616 2.55801 11.4854 4.81775L11.541 5.04041C12.1615 7.77836 10.4934 10.1482 8.85254 11.726L8.85059 11.7279C8.33499 12.2287 7.66821 12.4789 7 12.4789C6.33224 12.4788 5.66399 12.2286 5.1416 11.726C3.50118 10.1485 1.83353 7.77262 2.4541 5.03455C3.00247 2.62171 5.10774 1.521 6.99414 1.52087Z" fill="#8A9191" stroke="#8A9191"/>
<path d="M7 4.67664C7.7385 4.67685 8.33691 5.27598 8.33691 6.01453C8.3367 6.7529 7.73837 7.35123 7 7.35144C6.26145 7.35144 5.66232 6.75303 5.66211 6.01453C5.66211 5.27585 6.26132 4.67664 7 4.67664Z" fill="#8A9191" stroke="#8A9191"/>
</svg>
