<svg width="16" height="17" viewBox="0 0 16 17" fill="none" xmlns="http://www.w3.org/2000/svg">
<path opacity="0.4" d="M14.1671 6.60003C13.8404 6.08003 13.4671 5.61336 13.0804 5.19336L10.5671 7.70669C10.6471 7.95336 10.6937 8.22003 10.6937 8.50003C10.6937 9.99336 9.48706 11.1934 8.00039 11.1934C7.72039 11.1934 7.45372 11.1467 7.20706 11.0667L4.90039 13.3734C5.87372 13.92 6.92706 14.2067 8.00039 14.2067C9.18706 14.2067 10.3404 13.86 11.3937 13.2134C12.4471 12.56 13.3937 11.6067 14.1671 10.3934C14.8337 9.35336 14.8337 7.64669 14.1671 6.60003Z" fill="#8A9191"/>
<path d="M9.34708 7.15338L6.65375 9.84672C6.31375 9.50005 6.09375 9.02005 6.09375 8.50005C6.09375 7.45338 6.94708 6.59338 8.00042 6.59338C8.52042 6.59338 9.00042 6.81338 9.34708 7.15338Z" fill="#8A9191"/>
<path opacity="0.4" d="M12.1663 4.33329L9.90634 6.59329C9.41967 6.09995 8.74634 5.80662 7.99967 5.80662C6.50634 5.80662 5.30634 7.01329 5.30634 8.49995C5.30634 9.24662 5.60634 9.91995 6.09301 10.4066L3.83967 12.6666H3.83301C3.09301 12.0666 2.41301 11.3 1.83301 10.3933C1.16634 9.34662 1.16634 7.64662 1.83301 6.59995C2.60634 5.38662 3.55301 4.43329 4.60634 3.77995C5.65967 3.13995 6.81301 2.78662 7.99967 2.78662C9.48634 2.78662 10.9263 3.33329 12.1663 4.33329Z" fill="#8A9191"/>
<path d="M9.90672 8.50005C9.90672 9.54672 9.05339 10.4067 8.00005 10.4067C7.96005 10.4067 7.92672 10.4067 7.88672 10.3934L9.89339 8.38672C9.90672 8.42672 9.90672 8.46005 9.90672 8.50005Z" fill="#8A9191"/>
<path d="M14.5136 1.98667C14.3136 1.78667 13.9869 1.78667 13.7869 1.98667L1.48691 14.2933C1.28691 14.4933 1.28691 14.82 1.48691 15.02C1.58691 15.1133 1.71358 15.1667 1.84691 15.1667C1.98025 15.1667 2.10691 15.1133 2.20691 15.0133L14.5136 2.70667C14.7202 2.50667 14.7202 2.18667 14.5136 1.98667Z" fill="#8A9191"/>
</svg>
