<svg width="16" height="16" viewBox="0 0 16 16" fill="none" xmlns="http://www.w3.org/2000/svg">
<path opacity="0.4" d="M14.1533 5.07999H10.46C10.2067 5.07999 10 4.87332 10 4.61332C10 4.35999 10.2067 4.15332 10.46 4.15332H14.1533C14.4067 4.15332 14.6133 4.35999 14.6133 4.61332C14.6133 4.87332 14.4067 5.07999 14.1533 5.07999Z" fill="#001010"/>
<path opacity="0.4" d="M4.30672 5.07997H1.84672C1.59339 5.07997 1.38672 4.87331 1.38672 4.61997C1.38672 4.36664 1.59339 4.15997 1.84672 4.15997H4.30672C4.56005 4.15997 4.76672 4.36664 4.76672 4.61997C4.76672 4.87331 4.56005 5.07997 4.30672 5.07997Z" fill="#001010"/>
<path d="M6.76665 7.22667C8.20996 7.22667 9.37999 6.05664 9.37999 4.61333C9.37999 3.17003 8.20996 2 6.76665 2C5.32335 2 4.15332 3.17003 4.15332 4.61333C4.15332 6.05664 5.32335 7.22667 6.76665 7.22667Z" fill="#001010"/>
<path opacity="0.4" d="M14.1534 11.8466H11.6934C11.4401 11.8466 11.2334 11.64 11.2334 11.3866C11.2334 11.1333 11.4401 10.9266 11.6934 10.9266H14.1534C14.4067 10.9266 14.6134 11.1333 14.6134 11.3866C14.6134 11.64 14.4067 11.8466 14.1534 11.8466Z" fill="#001010"/>
<path opacity="0.4" d="M5.54005 11.8466H1.84672C1.59339 11.8466 1.38672 11.64 1.38672 11.3866C1.38672 11.1333 1.59339 10.9266 1.84672 10.9266H5.54005C5.79339 10.9266 6.00005 11.1333 6.00005 11.3866C6.00005 11.64 5.79339 11.8466 5.54005 11.8466Z" fill="#001010"/>
<path d="M9.23345 14C10.6768 14 11.8468 12.83 11.8468 11.3866C11.8468 9.94334 10.6768 8.77332 9.23345 8.77332C7.79015 8.77332 6.62012 9.94334 6.62012 11.3866C6.62012 12.83 7.79015 14 9.23345 14Z" fill="#001010"/>
</svg>
