<svg width="17" height="16" viewBox="0 0 17 16" fill="none" xmlns="http://www.w3.org/2000/svg">
<g id="vuesax/bulk/image">
<g id="image">
<path id="Vector" opacity="0.4" d="M15.1801 11.2134L13.0934 6.33339C12.7134 5.44005 12.1468 4.93339 11.5001 4.90005C10.8601 4.86672 10.2401 5.31339 9.76676 6.16672L8.50009 8.44005C8.23342 8.92005 7.85342 9.20672 7.44009 9.24005C7.02009 9.28005 6.60009 9.06005 6.26009 8.62672L6.11342 8.44005C5.64009 7.84672 5.05342 7.56006 4.45342 7.62005C3.85343 7.68005 3.34009 8.09339 3.00009 8.76672L1.84676 11.0667C1.43343 11.9001 1.47343 12.8667 1.96009 13.6534C2.44676 14.4401 3.29342 14.9134 4.22009 14.9134H12.7268C13.6201 14.9134 14.4534 14.4667 14.9468 13.7201C15.4534 12.9734 15.5334 12.0334 15.1801 11.2134Z" fill="#077D8A"/>
<path id="Vector_2" d="M5.14689 5.58662C6.39137 5.58662 7.40022 4.57777 7.40022 3.33329C7.40022 2.08881 6.39137 1.07996 5.14689 1.07996C3.90241 1.07996 2.89355 2.08881 2.89355 3.33329C2.89355 4.57777 3.90241 5.58662 5.14689 5.58662Z" fill="#077D8A"/>
</g>
</g>
</svg>
