<svg width="16" height="16" viewBox="0 0 16 16" fill="none" xmlns="http://www.w3.org/2000/svg">
<g id="vuesax/outline/link">
<g id="link">
<path id="Vector" d="M11 12.1667H9.99329C9.71995 12.1667 9.49329 11.94 9.49329 11.6667C9.49329 11.3934 9.71995 11.1667 9.99329 11.1667H11C12.7466 11.1667 14.1666 9.74671 14.1666 8.00004C14.1666 6.25337 12.7466 4.83337 11 4.83337H9.99995C9.72662 4.83337 9.49995 4.60671 9.49995 4.33337C9.49995 4.06004 9.71995 3.83337 9.99995 3.83337H11C13.3 3.83337 15.1666 5.70004 15.1666 8.00004C15.1666 10.3 13.3 12.1667 11 12.1667Z" fill="#292D32"/>
<path id="Vector_2" d="M6.00004 12.1667H5.00004C2.70004 12.1667 0.833374 10.3 0.833374 8.00004C0.833374 5.70004 2.70004 3.83337 5.00004 3.83337H6.00004C6.27337 3.83337 6.50004 4.06004 6.50004 4.33337C6.50004 4.60671 6.27337 4.83337 6.00004 4.83337H5.00004C3.25337 4.83337 1.83337 6.25337 1.83337 8.00004C1.83337 9.74671 3.25337 11.1667 5.00004 11.1667H6.00004C6.27337 11.1667 6.50004 11.3934 6.50004 11.6667C6.50004 11.94 6.27337 12.1667 6.00004 12.1667Z" fill="#001010"/>
<path id="Vector_3" d="M10.6667 8.5H5.33337C5.06004 8.5 4.83337 8.27333 4.83337 8C4.83337 7.72667 5.06004 7.5 5.33337 7.5H10.6667C10.94 7.5 11.1667 7.72667 11.1667 8C11.1667 8.27333 10.94 8.5 10.6667 8.5Z" fill="#001010"/>
</g>
</g>
</svg>
