<svg width="31" height="25" viewBox="0 0 31 25" fill="none" xmlns="http://www.w3.org/2000/svg">
<path d="M14.5588 24.0293C14.8895 24.193 15.2884 24.1662 15.5959 23.9473C15.698 23.8747 29.2954 14.2253 29.5842 14.0195C29.9793 13.7389 30.1212 13.2195 29.925 12.7764L24.549 0.621093C24.3223 0.107443 23.7222 -0.125388 23.2092 0.102543C22.6962 0.329793 22.464 0.931603 22.6916 1.44531C22.7381 1.54981 26.5533 10.1783 27.7317 12.8418C25.3232 14.5512 17.2566 20.2757 15.008 21.8711C12.7554 20.2722 4.68131 14.5424 2.28047 12.8389L7.32539 1.42968C7.55211 0.916173 7.32178 0.315233 6.80879 0.0878929C6.68453 0.0327469 6.55483 0.00660799 6.42696 0.00292999L6.425 0H6.39766C6.00837 0 5.6364 0.225653 5.46797 0.605473L0.0871095 12.7744C-0.108314 13.2168 0.0335194 13.7367 0.427929 14.0166L0.43086 14.0186C0.43254 14.0198 0.43546 14.0212 0.43867 14.0235C0.44535 14.0282 0.454929 14.0357 0.467969 14.0449C0.494309 14.0636 0.533219 14.0918 0.584179 14.1279C0.686189 14.2003 0.836129 14.3063 1.02656 14.4414C1.40753 14.7118 1.9523 15.0978 2.60567 15.5615C3.9124 16.4889 5.65558 17.7264 7.40059 18.9649C10.8817 21.4355 14.3709 23.9115 14.4211 23.9473L14.5588 24.0293Z" fill="#D3D3D3"/>
<path d="M15.006 24.1348C15.4237 24.1348 15.799 23.8781 15.9513 23.4884L24.5548 1.40338C24.7179 0.984653 24.588 0.508703 24.2354 0.231503C23.8828 -0.0455821 23.3906 -0.057064 23.0245 0.202213L15.0069 5.88287L6.98933 0.187563C6.81334 0.062075 6.60775 6.09756e-05 6.40242 6.09756e-05C6.18178 0.000125976 5.9608 0.0717129 5.77742 0.214903C5.42392 0.491343 5.294 0.968123 5.45711 1.38678L14.0606 23.4874C14.2128 23.878 14.5882 24.1347 15.006 24.1348ZM8.5782 3.81158L14.4181 7.95904C14.7688 8.20819 15.239 8.20878 15.5899 7.96002L21.4327 3.82037L15.006 20.3214L8.5782 3.81158Z" fill="#D3D3D3"/>
</svg>
