<svg width="24" height="25" viewBox="0 0 24 25" fill="none" xmlns="http://www.w3.org/2000/svg">
<rect y="0.5" width="24" height="24" rx="12" fill="#FFFFFE"/>
<path opacity="0.4" d="M17.7467 10.1333C17.0467 7.05329 14.3601 5.66663 12.0001 5.66663C12.0001 5.66663 12.0001 5.66663 11.9934 5.66663C9.64006 5.66663 6.94673 7.04663 6.24673 10.1266C5.46673 13.5666 7.5734 16.48 9.48006 18.3133C10.1867 18.9933 11.0934 19.3333 12.0001 19.3333C12.9067 19.3333 13.8134 18.9933 14.5134 18.3133C16.4201 16.48 18.5267 13.5733 17.7467 10.1333Z" fill="#292D32"/>
<path d="M12.0004 13.4733C13.1602 13.4733 14.1004 12.5331 14.1004 11.3733C14.1004 10.2135 13.1602 9.27332 12.0004 9.27332C10.8406 9.27332 9.90039 10.2135 9.90039 11.3733C9.90039 12.5331 10.8406 13.4733 12.0004 13.4733Z" fill="#001010"/>
</svg>
