<svg width="13" height="12" viewBox="0 0 13 12" fill="none" xmlns="http://www.w3.org/2000/svg">
<g clip-path="url(#clip0_2322_27087)">
<path d="M10.469 4.225C9.94405 1.915 7.92904 0.875 6.15904 0.875C6.15904 0.875 6.15904 0.875 6.15404 0.875C4.38904 0.875 2.36904 1.91 1.84404 4.22C1.25904 6.8 2.83904 8.985 4.26904 10.36C4.79904 10.87 5.47904 11.125 6.15904 11.125C6.83904 11.125 7.51904 10.87 8.04404 10.36C9.47404 8.985 11.054 6.805 10.469 4.225ZM6.15904 6.73C5.28904 6.73 4.58404 6.025 4.58404 5.155C4.58404 4.285 5.28904 3.58 6.15904 3.58C7.02904 3.58 7.73404 4.285 7.73404 5.155C7.73404 6.025 7.02904 6.73 6.15904 6.73Z" fill="#AEFC40"/>
</g>
<defs>
<clipPath id="clip0_2322_27087">
<rect width="12" height="12" fill="white" transform="translate(0.159058)"/>
</clipPath>
</defs>
</svg>
