<svg width="17" height="16" viewBox="0 0 17 16" fill="none" xmlns="http://www.w3.org/2000/svg">
<g id="vuesax/bulk/location">
<g id="location">
<path id="Vector" opacity="0.4" d="M14.2467 5.63335C13.5467 2.55335 10.8601 1.16669 8.50006 1.16669C8.50006 1.16669 8.50006 1.16669 8.4934 1.16669C6.14006 1.16669 3.44673 2.54669 2.74673 5.62669C1.96673 9.06669 4.0734 11.98 5.98006 13.8134C6.68673 14.4934 7.5934 14.8334 8.50006 14.8334C9.40673 14.8334 10.3134 14.4934 11.0134 13.8134C12.9201 11.98 15.0267 9.07335 14.2467 5.63335Z" fill="#FFFFFE"/>
<path id="Vector_2" d="M8.50039 8.97332C9.66019 8.97332 10.6004 8.03311 10.6004 6.87332C10.6004 5.71352 9.66019 4.77332 8.50039 4.77332C7.34059 4.77332 6.40039 5.71352 6.40039 6.87332C6.40039 8.03311 7.34059 8.97332 8.50039 8.97332Z" fill="#001010"/>
</g>
</g>
</svg>
