<svg width="24" height="25" viewBox="0 0 24 25" fill="none" xmlns="http://www.w3.org/2000/svg">
<rect y="0.5" width="24" height="24" rx="6" fill="#FFFFFE"/>
<path opacity="0.4" d="M11.9998 16.0666C12.5999 16.0666 13.0864 15.5801 13.0864 14.98C13.0864 14.3798 12.5999 13.8933 11.9998 13.8933C11.3996 13.8933 10.9131 14.3798 10.9131 14.98C10.9131 15.5801 11.3996 16.0666 11.9998 16.0666Z" fill="#001010"/>
<path d="M15.0997 10.7933H8.89967C6.16634 10.7933 5.33301 11.6267 5.33301 14.36V15.6C5.33301 18.3333 6.16634 19.1667 8.89967 19.1667H15.0997C17.833 19.1667 18.6663 18.3333 18.6663 15.6V14.36C18.6663 11.6267 17.833 10.7933 15.0997 10.7933ZM11.9997 16.9933C10.8863 16.9933 9.98634 16.0867 9.98634 14.98C9.98634 13.8733 10.8863 12.9667 11.9997 12.9667C13.113 12.9667 14.013 13.8733 14.013 14.98C14.013 16.0867 13.113 16.9933 11.9997 16.9933Z" fill="#001010"/>
<path opacity="0.4" d="M8.74681 10.8V10.02C8.74681 8.06671 9.30014 6.76671 12.0001 6.76671C14.7001 6.76671 15.2535 8.06671 15.2535 10.02V10.8C15.5935 10.8067 15.9001 10.82 16.1868 10.86V10.02C16.1868 8.22004 15.7535 5.83337 12.0001 5.83337C8.24681 5.83337 7.81348 8.22004 7.81348 10.02V10.8534C8.09348 10.82 8.40681 10.8 8.74681 10.8Z" fill="#001010"/>
</svg>
