<svg width="16" height="16" viewBox="0 0 16 16" fill="none" xmlns="http://www.w3.org/2000/svg">
<g id="vuesax/bulk/logout">
<g id="logout">
<path id="Vector" opacity="0.4" d="M8.82682 1.33337C9.14016 1.33337 9.40016 1.58671 9.40016 1.90671V14.1C9.40016 14.4134 9.14682 14.6734 8.82682 14.6734C4.90016 14.6734 2.16016 11.9334 2.16016 8.00671C2.16016 4.08004 4.90682 1.33337 8.82682 1.33337Z" fill="#DB2863"/>
<path id="Vector_2" d="M13.6929 7.69332L11.7996 5.79332C11.6063 5.59998 11.2863 5.59998 11.0929 5.79332C10.8996 5.98665 10.8996 6.30665 11.0929 6.49998L12.1329 7.53998H5.75293C5.4796 7.53998 5.25293 7.76665 5.25293 8.03998C5.25293 8.31332 5.4796 8.53998 5.75293 8.53998H12.1329L11.0929 9.57998C10.8996 9.77332 10.8996 10.0933 11.0929 10.2866C11.1929 10.3866 11.3196 10.4333 11.4463 10.4333C11.5729 10.4333 11.6996 10.3866 11.7996 10.2866L13.6929 8.38665C13.8863 8.19998 13.8863 7.88665 13.6929 7.69332Z" fill="#DB2863"/>
</g>
</g>
</svg>
