<svg width="31" height="25" viewBox="0 0 31 25" fill="none" xmlns="http://www.w3.org/2000/svg">
<path d="M14.626 24.0972C14.9567 24.2608 15.3556 24.2341 15.6631 24.0151C15.7652 23.9426 29.3626 14.2931 29.6514 14.0874C30.0465 13.8068 30.1883 13.2874 29.9922 12.8442L24.6162 0.688965C24.3894 0.175311 23.7894 -0.0575174 23.2764 0.17041C22.7634 0.397659 22.5311 0.999479 22.7588 1.51318C22.8052 1.61768 26.6205 10.2462 27.7988 12.9097C25.3904 14.6191 17.3238 20.3436 15.0752 21.939C12.8225 20.34 4.74849 14.6102 2.34766 12.9067L7.39258 1.49756C7.6193 0.984039 7.38896 0.383102 6.87598 0.155762C6.75171 0.100618 6.62202 0.0744786 6.49414 0.0708008L6.49219 0.0678711H6.46484C6.07556 0.0678711 5.70359 0.29352 5.53516 0.67334L0.154297 12.8423C-0.0411279 13.2846 0.100706 13.8046 0.495117 14.0845H0.496094C0.496517 14.0848 0.497203 14.0858 0.498047 14.0864C0.49973 14.0876 0.502647 14.089 0.505859 14.0913C0.512538 14.096 0.52212 14.1035 0.535156 14.1128C0.561494 14.1315 0.600403 14.1596 0.651367 14.1958C0.753375 14.2682 0.903314 14.3741 1.09375 14.5093C1.47471 14.7796 2.01948 15.1657 2.67285 15.6294C3.97958 16.5568 5.72276 17.7943 7.46777 19.0327C10.9489 21.5033 14.438 23.9794 14.4883 24.0151L14.626 24.0972Z" fill="#AEFC40" stroke="#AEFC40" stroke-width="0.135172"/>
<path d="M15.0723 24.2026C15.49 24.2026 15.8653 23.9459 16.0176 23.5562L24.6211 1.47119C24.7843 1.05247 24.6543 0.57651 24.3018 0.299316C23.9491 0.0222282 23.4569 0.0107459 23.0908 0.27002L15.0732 5.95068L7.05566 0.255371C6.87968 0.129885 6.67408 0.0678711 6.46875 0.0678711C6.24812 0.0679359 6.02713 0.139521 5.84375 0.282715C5.49026 0.559156 5.36033 1.03594 5.52344 1.45459L14.127 23.5552C14.2791 23.9458 14.6545 24.2025 15.0723 24.2026ZM8.64453 3.87939L14.4844 8.02686C14.8351 8.276 15.3053 8.27659 15.6562 8.02783H15.6572L21.499 3.88818L15.0723 20.3892L8.64453 3.87939Z" fill="#AEFC40" stroke="#AEFC40" stroke-width="0.135172"/>
</svg>
