<svg width="16" height="17" viewBox="0 0 16 17" fill="none" xmlns="http://www.w3.org/2000/svg">
<path d="M5.25337 8.63509C5.25337 8.36175 5.48003 8.13509 5.75337 8.13509H9.4067V2.49509C9.40003 2.17509 9.1467 1.92175 8.8267 1.92175C4.90003 1.92175 2.16003 4.66175 2.16003 8.58842C2.16003 12.5151 4.90003 15.2551 8.8267 15.2551C9.14003 15.2551 9.40003 15.0018 9.40003 14.6818V9.12842H5.75337C5.47337 9.13509 5.25337 8.90842 5.25337 8.63509Z" fill="#DB2863"/>
<path d="M13.6934 8.28176L11.8 6.38176C11.6067 6.18842 11.2867 6.18842 11.0934 6.38176C10.9 6.57509 10.9 6.89509 11.0934 7.08842L12.1334 8.12842H9.40002V9.12842H12.1267L11.0867 10.1684C10.8934 10.3618 10.8934 10.6818 11.0867 10.8751C11.1867 10.9751 11.3134 11.0218 11.44 11.0218C11.5667 11.0218 11.6934 10.9751 11.7934 10.8751L13.6867 8.97509C13.8867 8.78842 13.8867 8.47509 13.6934 8.28176Z" fill="#DB2863"/>
</svg>
