<svg width="16" height="16" viewBox="0 0 16 16" fill="none" xmlns="http://www.w3.org/2000/svg">
<path opacity="0.4" d="M11.332 13.6667H4.66536C2.66536 13.6667 1.33203 12.6667 1.33203 10.3334V5.66671C1.33203 3.33337 2.66536 2.33337 4.66536 2.33337H11.332C13.332 2.33337 14.6654 3.33337 14.6654 5.66671V10.3334C14.6654 12.6667 13.332 13.6667 11.332 13.6667Z" fill="#001010"/>
<path d="M7.9992 8.57998C7.4392 8.57998 6.87254 8.40665 6.4392 8.05331L4.35253 6.38665C4.1392 6.21331 4.0992 5.89998 4.27254 5.68665C4.44587 5.47331 4.75921 5.43332 4.97254 5.60665L7.0592 7.27332C7.56587 7.67998 8.42586 7.67998 8.93253 7.27332L11.0192 5.60665C11.2325 5.43332 11.5525 5.46665 11.7192 5.68665C11.8925 5.89998 11.8592 6.21998 11.6392 6.38665L9.55254 8.05331C9.12587 8.40665 8.5592 8.57998 7.9992 8.57998Z" fill="#001010"/>
</svg>
