<svg width="111" height="26" viewBox="0 0 111 26" fill="none" xmlns="http://www.w3.org/2000/svg">
<path d="M7.35764 0.932413H7.32966C6.94037 0.932413 6.56874 1.15788 6.40031 1.5377L6.40028 1.53777L1.01949 13.7072L1.01948 13.7072C0.824033 14.1496 0.966107 14.6693 1.36062 14.9491L1.38039 14.9213C1.36063 14.9491 1.36068 14.9492 1.36077 14.9492L1.36125 14.9496L1.36315 14.9509L1.3707 14.9563L1.40056 14.9775L1.51704 15.0601L1.95919 15.3739L3.53783 16.4943L8.33262 19.8972L15.3537 24.8802L15.3539 24.8804C15.7059 25.1295 16.1766 25.1305 16.5281 24.8802C16.5478 24.8662 17.8422 23.9476 19.6364 22.6743C23.6959 19.7933 30.3141 15.0965 30.5165 14.9523C30.9117 14.6716 31.0538 14.152 30.8575 13.7087L30.8575 13.7087C30.7579 13.484 29.2688 10.1169 27.8831 6.98356C26.6539 4.20408 25.506 1.60852 25.4814 1.55344C25.2546 1.03986 24.6545 0.807518 24.1416 1.03555C23.6286 1.2628 23.3967 1.8639 23.6244 2.37761L23.6244 2.37768C23.6424 2.41822 24.2731 3.84446 25.0969 5.70727C26.317 8.46639 27.9607 12.1833 28.6644 13.7739C26.2567 15.4827 18.1911 21.207 15.9413 22.8032C13.6891 21.2047 5.61446 15.4743 3.21347 13.7707L8.25824 2.36252L8.25826 2.36248C8.48499 1.84893 8.25413 1.24784 7.74108 1.02053C7.74106 1.02053 7.74105 1.02052 7.74103 1.02052L7.71366 1.08231C7.58882 1.02691 7.45845 1.00079 7.33045 1.00079L7.35764 0.932413ZM7.35764 0.932413L7.35883 0.933601L7.35764 0.932413Z" fill="#AEFC40" stroke="#AEFC40" stroke-width="0.135172"/>
<path d="M6.71019 1.14782L6.71015 1.14785C6.35662 1.42429 6.22649 1.90072 6.38963 2.3194H6.38963L6.38964 2.31941L14.9931 24.4199L14.9931 24.4199C15.1452 24.8107 15.5207 25.0676 15.9386 25.0676C16.3565 25.0676 16.7319 24.8107 16.8841 24.4208L16.8841 24.4207L25.4875 2.33603C25.6507 1.91731 25.5205 1.44177 25.1679 1.16458C24.8152 0.887238 24.3229 0.87541 23.9567 1.13486L15.9394 6.8151L7.92222 1.11995L6.71019 1.14782ZM6.71019 1.14782C6.89365 1.00456 7.1144 0.932476 7.33514 0.932476M6.71019 1.14782L7.33514 0.932476M7.33514 0.932476C7.5405 0.932476 7.7461 0.994343 7.92211 1.11987L7.33514 0.932476ZM15.3508 8.89212L15.39 8.83702L15.3508 8.89212L9.51108 4.74346L15.9386 21.2531L22.3654 4.75253L16.5232 8.89212C16.1722 9.14146 15.7019 9.14146 15.3508 8.89212Z" fill="#AEFC40" stroke="#AEFC40" stroke-width="0.135172"/>
<path d="M38.0586 21.014L41.2143 4.71167H42.7164L47.118 16.2863L51.508 4.71167H53.0101L56.1774 21.014H54.1862L51.8922 9.18315L47.7585 20.129H46.4659L42.3321 9.18315L40.0498 21.014H38.0586Z" fill="#AEFC40"/>
<path d="M63.0824 21.3167C62.0111 21.3167 61.033 21.0411 60.148 20.49C59.2708 19.9388 58.5682 19.2013 58.0404 18.2775C57.5202 17.3459 57.2602 16.3173 57.2602 15.1917C57.2602 14.3378 57.4116 13.5421 57.7143 12.8046C58.0171 12.0593 58.4324 11.4073 58.9603 10.8483C59.4959 10.2816 60.117 9.83913 60.8234 9.52084C61.5298 9.20256 62.2828 9.04342 63.0824 9.04342C63.9596 9.04342 64.7631 9.22197 65.4928 9.57907C66.2303 9.9284 66.8591 10.4175 67.3792 11.0463C67.9071 11.6751 68.2991 12.4048 68.5553 13.2354C68.8193 14.0661 68.9163 14.9549 68.8464 15.902H59.3445C59.4377 16.5619 59.6551 17.1519 59.9966 17.672C60.3382 18.1843 60.7729 18.5919 61.3008 18.8947C61.8365 19.1974 62.4303 19.3527 63.0824 19.3604C63.7811 19.3604 64.4138 19.1819 64.9805 18.8248C65.5472 18.4599 66.0052 17.9631 66.3545 17.3343L68.3457 17.8001C67.8799 18.8326 67.1774 19.6787 66.2381 20.3386C65.2988 20.9907 64.2469 21.3167 63.0824 21.3167ZM59.2863 14.365H66.8785C66.8164 13.7129 66.6068 13.119 66.2497 12.5833C65.8926 12.0399 65.4385 11.6052 64.8873 11.2792C64.3361 10.9531 63.7345 10.7901 63.0824 10.7901C62.4303 10.7901 61.8326 10.9492 61.2892 11.2675C60.7458 11.5858 60.2955 12.0166 59.9384 12.5601C59.5891 13.0957 59.3717 13.6973 59.2863 14.365Z" fill="#AEFC40"/>
<path d="M75.8641 21.3167C74.7928 21.3167 73.8146 21.0411 72.9296 20.49C72.0524 19.9388 71.3499 19.2013 70.822 18.2775C70.3019 17.3459 70.0418 16.3173 70.0418 15.1917C70.0418 14.3378 70.1932 13.5421 70.496 12.8046C70.7987 12.0593 71.214 11.4073 71.7419 10.8483C72.2776 10.2816 72.8986 9.83913 73.605 9.52084C74.3115 9.20256 75.0645 9.04342 75.8641 9.04342C76.7413 9.04342 77.5448 9.22197 78.2745 9.57907C79.012 9.9284 79.6408 10.4175 80.1609 11.0463C80.6888 11.6751 81.0808 12.4048 81.337 13.2354C81.6009 14.0661 81.6979 14.9549 81.6281 15.902H72.1262C72.2193 16.5619 72.4367 17.1519 72.7783 17.672C73.1198 18.1843 73.5546 18.5919 74.0825 18.8947C74.6181 19.1974 75.212 19.3527 75.8641 19.3604C76.5627 19.3604 77.1954 19.1819 77.7621 18.8248C78.3288 18.4599 78.7868 17.9631 79.1362 17.3343L81.1274 17.8001C80.6616 18.8326 79.959 19.6787 79.0197 20.3386C78.0804 20.9907 77.0285 21.3167 75.8641 21.3167ZM72.068 14.365H79.6602C79.5981 13.7129 79.3885 13.119 79.0314 12.5833C78.6743 12.0399 78.2201 11.6052 77.669 11.2792C77.1178 10.9531 76.5162 10.7901 75.8641 10.7901C75.212 10.7901 74.6142 10.9492 74.0708 11.2675C73.5274 11.5858 73.0771 12.0166 72.7201 12.5601C72.3707 13.0957 72.1534 13.6973 72.068 14.365Z" fill="#AEFC40"/>
<path d="M89.4857 11.3257H86.8424L86.8308 21.014H84.8745L84.8862 11.3257H82.8833V9.36947H84.8862L84.8745 5.7131H86.8308L86.8424 9.36947H89.4857V11.3257Z" fill="#AEFC40"/>
<path d="M91.5732 21.014V9.36947H93.5295V10.825C93.9409 10.2816 94.461 9.85077 95.0898 9.53249C95.7186 9.20644 96.4018 9.04342 97.1393 9.04342C97.5895 9.04342 98.0243 9.10164 98.4435 9.21809L97.6516 11.1744C97.3333 11.0734 97.0228 11.023 96.7201 11.023C96.1378 11.023 95.6022 11.1666 95.1131 11.4538C94.6318 11.7333 94.2476 12.1137 93.9603 12.595C93.6731 13.0763 93.5295 13.6119 93.5295 14.2019V21.014H91.5732Z" fill="#AEFC40"/>
<path d="M104.407 21.3167C103.335 21.3167 102.357 21.0411 101.472 20.49C100.595 19.9388 99.8925 19.2013 99.3646 18.2775C98.8445 17.3459 98.5845 16.3173 98.5845 15.1917C98.5845 14.3378 98.7358 13.5421 99.0386 12.8046C99.3414 12.0593 99.7567 11.4073 100.285 10.8483C100.82 10.2816 101.441 9.83913 102.148 9.52084C102.854 9.20256 103.607 9.04342 104.407 9.04342C105.478 9.04342 106.452 9.31901 107.329 9.87018C108.214 10.4214 108.917 11.1627 109.437 12.0943C109.965 13.0258 110.229 14.0583 110.229 15.1917C110.229 16.0379 110.078 16.8297 109.775 17.5672C109.472 18.3047 109.053 18.9568 108.517 19.5235C107.989 20.0824 107.372 20.521 106.666 20.8393C105.967 21.1576 105.214 21.3167 104.407 21.3167ZM104.407 19.3604C105.136 19.3604 105.792 19.1702 106.375 18.7899C106.965 18.4017 107.427 17.8932 107.76 17.2644C108.102 16.6279 108.273 15.937 108.273 15.1917C108.273 14.4309 108.098 13.7323 107.749 13.0957C107.407 12.4591 106.945 11.9507 106.363 11.5703C105.781 11.1899 105.129 10.9997 104.407 10.9997C103.677 10.9997 103.021 11.1938 102.439 11.5819C101.857 11.9623 101.395 12.4708 101.053 13.1073C100.712 13.7439 100.541 14.4387 100.541 15.1917C100.541 15.968 100.715 16.6744 101.065 17.311C101.414 17.9398 101.884 18.4405 102.474 18.8131C103.064 19.178 103.708 19.3604 104.407 19.3604Z" fill="#AEFC40"/>
</svg>
