<svg width="31" height="25" viewBox="0 0 31 25" fill="none" xmlns="http://www.w3.org/2000/svg">
<path d="M14.6264 24.0969C14.9571 24.2606 15.356 24.2338 15.6635 24.0149C15.7656 23.9423 29.363 14.2929 29.6518 14.0871C30.0469 13.8065 30.1888 13.2871 29.9926 12.844L24.6166 0.68872C24.3899 0.17507 23.7898 -0.0577611 23.2768 0.17017C22.7638 0.39742 22.5316 0.99923 22.7592 1.51294C22.8057 1.61744 26.6209 10.2459 27.7993 12.9094C25.3908 14.6188 17.3242 20.3433 15.0756 21.9387C12.823 20.3398 4.74894 14.61 2.3481 12.9065L7.39302 1.49731C7.61974 0.9838 7.38941 0.38286 6.87642 0.15552C6.75216 0.100374 6.62246 0.0742349 6.49459 0.0705569L6.49263 0.067627H6.46529C6.076 0.067627 5.70403 0.29328 5.5356 0.6731L0.154736 12.842C-0.0406875 13.2844 0.101146 13.8043 0.495556 14.0842L0.498486 14.0862C0.500166 14.0874 0.503086 14.0888 0.506296 14.0911C0.512976 14.0958 0.522556 14.1033 0.535596 14.1125C0.561936 14.1312 0.600846 14.1594 0.651806 14.1955C0.753816 14.2679 0.903756 14.3739 1.09419 14.509C1.47516 14.7794 2.01993 15.1654 2.6733 15.6291C3.98003 16.5565 5.72321 17.794 7.46822 19.0325C10.9493 21.5031 14.4385 23.9791 14.4887 24.0149L14.6264 24.0969Z" fill="#011F0F"/>
<path d="M15.0736 24.2024C15.4913 24.2024 15.8666 23.9457 16.0189 23.556L24.6224 1.47101C24.7855 1.05228 24.6556 0.57633 24.303 0.29913C23.9504 0.0220449 23.4582 0.010563 23.0921 0.26984L15.0745 5.9505L7.05696 0.25519C6.88097 0.129702 6.67538 0.0676879 6.47005 0.0676879C6.24941 0.0677529 6.02843 0.13934 5.84505 0.28253C5.49155 0.55897 5.36163 1.03575 5.52474 1.45441L14.1282 23.555C14.2804 23.9456 14.6558 24.2023 15.0736 24.2024ZM8.64583 3.87921L14.4857 8.02667C14.8364 8.27582 15.3066 8.27641 15.6575 8.02765L21.5003 3.888L15.0736 20.389L8.64583 3.87921Z" fill="#011F0F"/>
<path d="M14.6264 24.0969C14.9571 24.2606 15.356 24.2338 15.6635 24.0149C15.7656 23.9423 29.363 14.2929 29.6518 14.0871C30.0469 13.8065 30.1888 13.2871 29.9926 12.844L24.6166 0.68872C24.3899 0.17507 23.7898 -0.0577611 23.2768 0.17017C22.7638 0.39742 22.5316 0.99923 22.7592 1.51294C22.8057 1.61744 26.6209 10.2459 27.7993 12.9094C25.3908 14.6188 17.3242 20.3433 15.0756 21.9387C12.823 20.3398 4.74894 14.61 2.3481 12.9065L7.39302 1.49731C7.61974 0.9838 7.38941 0.38286 6.87642 0.15552C6.75216 0.100374 6.62246 0.0742349 6.49459 0.0705569L6.49263 0.067627H6.46529C6.076 0.067627 5.70403 0.29328 5.5356 0.6731L0.154736 12.842C-0.0406875 13.2844 0.101146 13.8043 0.495556 14.0842L0.498486 14.0862C0.500166 14.0874 0.503086 14.0888 0.506296 14.0911C0.512976 14.0958 0.522556 14.1033 0.535596 14.1125C0.561936 14.1312 0.600846 14.1594 0.651806 14.1955C0.753816 14.2679 0.903756 14.3739 1.09419 14.509C1.47516 14.7794 2.01993 15.1654 2.6733 15.6291C3.98003 16.5565 5.72321 17.794 7.46822 19.0325C10.9493 21.5031 14.4385 23.9791 14.4887 24.0149L14.6264 24.0969Z" stroke="#011F0F" stroke-width="0.135172"/>
<path d="M15.0736 24.2024C15.4913 24.2024 15.8666 23.9457 16.0189 23.556L24.6224 1.47101C24.7855 1.05228 24.6556 0.57633 24.303 0.29913C23.9504 0.0220449 23.4582 0.010563 23.0921 0.26984L15.0745 5.9505L7.05696 0.25519C6.88097 0.129702 6.67538 0.0676879 6.47005 0.0676879C6.24941 0.0677529 6.02843 0.13934 5.84505 0.28253C5.49155 0.55897 5.36163 1.03575 5.52474 1.45441L14.1282 23.555C14.2804 23.9456 14.6558 24.2023 15.0736 24.2024ZM8.64583 3.87921L14.4857 8.02667C14.8364 8.27582 15.3066 8.27641 15.6575 8.02765L21.5003 3.888L15.0736 20.389L8.64583 3.87921Z" stroke="#011F0F" stroke-width="0.135172"/>
</svg>
