<svg width="111" height="26" viewBox="0 0 111 26" fill="none" xmlns="http://www.w3.org/2000/svg">
<path d="M15.4912 24.9619C15.8219 25.1256 16.2208 25.0988 16.5283 24.8799C16.6304 24.8073 30.2278 15.1579 30.5166 14.9521C30.9117 14.6715 31.0536 14.1521 30.8574 13.709L25.4814 1.55371C25.2547 1.04006 24.6546 0.807229 24.1416 1.03516C23.6286 1.26241 23.3964 1.86422 23.624 2.37793C23.6705 2.48243 27.4857 11.1109 28.6641 13.7744C26.2556 15.4838 18.189 21.2083 15.9404 22.8037C13.6878 21.2048 5.61373 15.475 3.21289 13.7715L8.25781 2.3623C8.48453 1.84879 8.2542 1.24785 7.74121 1.02051C7.61695 0.965364 7.48725 0.939225 7.35938 0.935547L7.35742 0.932617H7.33008C6.94079 0.932617 6.56882 1.15827 6.40039 1.53809L1.01953 13.707C0.824106 14.1494 0.96594 14.6693 1.36035 14.9492H1.36133C1.36175 14.9495 1.36244 14.9506 1.36328 14.9512C1.36496 14.9524 1.36788 14.9538 1.37109 14.9561C1.37777 14.9608 1.38735 14.9683 1.40039 14.9775C1.42673 14.9962 1.46564 15.0244 1.5166 15.0605C1.61861 15.1329 1.76855 15.2389 1.95898 15.374C2.33995 15.6444 2.88472 16.0304 3.53809 16.4941C4.84482 17.4215 6.588 18.659 8.33301 19.8975C11.8141 22.3681 15.3033 24.8441 15.3535 24.8799L15.4912 24.9619Z" fill="#011F0F" stroke="#011F0F" stroke-width="0.135172"/>
<path d="M15.9384 25.0674C16.3561 25.0674 16.7314 24.8107 16.8837 24.421L25.4872 2.336C25.6503 1.91727 25.5204 1.44132 25.1678 1.16412C24.8152 0.887035 24.323 0.875553 23.9569 1.13483L15.9393 6.81549L7.92175 1.12018C7.74576 0.994692 7.54017 0.932678 7.33484 0.932678C7.1142 0.932743 6.89322 1.00433 6.70984 1.14752C6.35634 1.42396 6.22642 1.90074 6.38953 2.3194L14.993 24.42C15.1452 24.8106 15.5206 25.0673 15.9384 25.0674ZM9.51062 4.7442L15.3505 8.89166C15.7012 9.14081 16.1714 9.1414 16.5223 8.89264H16.5233L22.3651 4.75299L15.9384 21.254L9.51062 4.7442Z" fill="#011F0F" stroke="#011F0F" stroke-width="0.135172"/>
<path d="M38.0586 21.0139L41.2143 4.71164H42.7164L47.118 16.2863L51.508 4.71164H53.0101L56.1774 21.0139H54.1862L51.8922 9.18312L47.7585 20.1289H46.4659L42.3321 9.18312L40.0498 21.0139H38.0586Z" fill="#011F0F"/>
<path d="M63.0824 21.3167C62.0111 21.3167 61.033 21.0411 60.148 20.4899C59.2708 19.9388 58.5682 19.2013 58.0404 18.2775C57.5202 17.3459 57.2602 16.3173 57.2602 15.1917C57.2602 14.3378 57.4116 13.542 57.7143 12.8046C58.0171 12.0593 58.4324 11.4072 58.9603 10.8483C59.4959 10.2816 60.117 9.8391 60.8234 9.52081C61.5298 9.20253 62.2828 9.04339 63.0824 9.04339C63.9596 9.04339 64.7631 9.22194 65.4928 9.57904C66.2303 9.92837 66.8591 10.4174 67.3792 11.0462C67.9071 11.675 68.2991 12.4048 68.5553 13.2354C68.8193 14.066 68.9163 14.9549 68.8464 15.902H59.3445C59.4377 16.5618 59.6551 17.1518 59.9966 17.672C60.3382 18.1843 60.7729 18.5919 61.3008 18.8946C61.8365 19.1974 62.4303 19.3526 63.0824 19.3604C63.7811 19.3604 64.4138 19.1819 64.9805 18.8248C65.5472 18.4599 66.0052 17.9631 66.3545 17.3343L68.3457 17.8C67.8799 18.8325 67.1774 19.6787 66.2381 20.3385C65.2988 20.9906 64.2469 21.3167 63.0824 21.3167ZM59.2863 14.3649H66.8785C66.8164 13.7128 66.6068 13.119 66.2497 12.5833C65.8926 12.0399 65.4385 11.6052 64.8873 11.2791C64.3361 10.9531 63.7345 10.7901 63.0824 10.7901C62.4303 10.7901 61.8326 10.9492 61.2892 11.2675C60.7458 11.5858 60.2955 12.0166 59.9384 12.56C59.5891 13.0957 59.3717 13.6973 59.2863 14.3649Z" fill="#011F0F"/>
<path d="M75.8641 21.3167C74.7928 21.3167 73.8146 21.0411 72.9296 20.4899C72.0524 19.9388 71.3499 19.2013 70.822 18.2775C70.3019 17.3459 70.0418 16.3173 70.0418 15.1917C70.0418 14.3378 70.1932 13.542 70.496 12.8046C70.7987 12.0593 71.214 11.4072 71.7419 10.8483C72.2776 10.2816 72.8986 9.8391 73.605 9.52081C74.3115 9.20253 75.0645 9.04339 75.8641 9.04339C76.7413 9.04339 77.5448 9.22194 78.2745 9.57904C79.012 9.92837 79.6408 10.4174 80.1609 11.0462C80.6888 11.675 81.0808 12.4048 81.337 13.2354C81.6009 14.066 81.6979 14.9549 81.6281 15.902H72.1262C72.2193 16.5618 72.4367 17.1518 72.7783 17.672C73.1198 18.1843 73.5546 18.5919 74.0825 18.8946C74.6181 19.1974 75.212 19.3526 75.8641 19.3604C76.5627 19.3604 77.1954 19.1819 77.7621 18.8248C78.3288 18.4599 78.7868 17.9631 79.1362 17.3343L81.1274 17.8C80.6616 18.8325 79.959 19.6787 79.0197 20.3385C78.0804 20.9906 77.0285 21.3167 75.8641 21.3167ZM72.068 14.3649H79.6602C79.5981 13.7128 79.3885 13.119 79.0314 12.5833C78.6743 12.0399 78.2201 11.6052 77.669 11.2791C77.1178 10.9531 76.5162 10.7901 75.8641 10.7901C75.212 10.7901 74.6142 10.9492 74.0708 11.2675C73.5274 11.5858 73.0771 12.0166 72.7201 12.56C72.3707 13.0957 72.1534 13.6973 72.068 14.3649Z" fill="#011F0F"/>
<path d="M89.4857 11.3257H86.8424L86.8308 21.0139H84.8745L84.8862 11.3257H82.8833V9.36944H84.8862L84.8745 5.71307H86.8308L86.8424 9.36944H89.4857V11.3257Z" fill="#011F0F"/>
<path d="M91.5732 21.0139V9.36944H93.5295V10.825C93.9409 10.2816 94.461 9.85074 95.0898 9.53246C95.7186 9.20641 96.4018 9.04339 97.1393 9.04339C97.5895 9.04339 98.0243 9.10161 98.4435 9.21806L97.6516 11.1743C97.3333 11.0734 97.0228 11.023 96.7201 11.023C96.1378 11.023 95.6022 11.1666 95.1131 11.4538C94.6318 11.7333 94.2476 12.1137 93.9603 12.595C93.6731 13.0763 93.5295 13.6119 93.5295 14.2019V21.0139H91.5732Z" fill="#011F0F"/>
<path d="M104.407 21.3167C103.335 21.3167 102.357 21.0411 101.472 20.4899C100.595 19.9388 99.8925 19.2013 99.3646 18.2775C98.8445 17.3459 98.5845 16.3173 98.5845 15.1917C98.5845 14.3378 98.7358 13.542 99.0386 12.8046C99.3414 12.0593 99.7567 11.4072 100.285 10.8483C100.82 10.2816 101.441 9.8391 102.148 9.52081C102.854 9.20253 103.607 9.04339 104.407 9.04339C105.478 9.04339 106.452 9.31898 107.329 9.87015C108.214 10.4213 108.917 11.1627 109.437 12.0942C109.965 13.0258 110.229 14.0583 110.229 15.1917C110.229 16.0378 110.078 16.8297 109.775 17.5672C109.472 18.3046 109.053 18.9567 108.517 19.5234C107.989 20.0824 107.372 20.521 106.666 20.8393C105.967 21.1575 105.214 21.3167 104.407 21.3167ZM104.407 19.3604C105.136 19.3604 105.792 19.1702 106.375 18.7898C106.965 18.4017 107.427 17.8932 107.76 17.2644C108.102 16.6278 108.273 15.9369 108.273 15.1917C108.273 14.4309 108.098 13.7322 107.749 13.0957C107.407 12.4591 106.945 11.9506 106.363 11.5702C105.781 11.1899 105.129 10.9997 104.407 10.9997C103.677 10.9997 103.021 11.1937 102.439 11.5819C101.857 11.9623 101.395 12.4708 101.053 13.1073C100.712 13.7439 100.541 14.4387 100.541 15.1917C100.541 15.968 100.715 16.6744 101.065 17.311C101.414 17.9398 101.884 18.4405 102.474 18.8131C103.064 19.178 103.708 19.3604 104.407 19.3604Z" fill="#011F0F"/>
</svg>
