<svg width="1320" height="304" viewBox="0 0 1320 304" fill="none" xmlns="http://www.w3.org/2000/svg">
<path d="M0 298.159L57.7171 0.181641H85.1914L165.697 211.746L245.99 0.181641H273.464L331.394 298.159H294.975L253.018 81.9127L177.411 281.984H153.77L78.1631 81.9127L36.4193 298.159H0Z" fill="#011F0F"/>
<path d="M457.687 303.693C438.093 303.693 420.203 298.656 404.017 288.582C387.972 278.507 375.123 265.027 365.468 248.142C355.954 231.114 351.198 212.313 351.198 191.739C351.198 176.13 353.967 161.586 359.504 148.106C365.042 134.484 372.638 122.565 382.293 112.349C392.09 101.991 403.449 93.9028 416.369 88.0851C429.29 82.2674 443.063 79.3586 457.687 79.3586C473.732 79.3586 488.427 82.6222 501.774 89.1493C515.262 95.5345 526.763 104.474 536.276 115.967C545.931 127.461 553.102 140.799 557.787 155.981C562.615 171.164 564.389 187.411 563.111 204.722H389.321C391.025 216.783 395.001 227.567 401.248 237.074C407.495 246.439 415.446 253.888 425.101 259.422C434.898 264.956 445.76 267.794 457.687 267.936C470.466 267.936 482.038 264.672 492.403 258.145C502.768 251.476 511.145 242.395 517.534 230.902L553.953 239.415C545.434 258.287 532.585 273.754 515.404 285.815C498.224 297.734 478.985 303.693 457.687 303.693ZM388.256 176.627H527.118C525.982 164.708 522.149 153.853 515.617 144.062C509.086 134.13 500.78 126.184 490.699 120.224C480.618 114.265 469.614 111.285 457.687 111.285C445.76 111.285 434.827 114.194 424.889 120.011C414.95 125.829 406.714 133.704 400.183 143.637C393.794 153.427 389.818 164.424 388.256 176.627Z" fill="#011F0F"/>
<path d="M691.464 303.693C671.87 303.693 653.98 298.656 637.794 288.582C621.749 278.507 608.9 265.027 599.245 248.142C589.732 231.114 584.975 212.313 584.975 191.739C584.975 176.13 587.744 161.586 593.281 148.106C598.819 134.484 606.415 122.565 616.07 112.349C625.867 101.991 637.226 93.9028 650.146 88.0851C663.067 82.2674 676.84 79.3586 691.464 79.3586C707.509 79.3586 722.204 82.6222 735.551 89.1493C749.039 95.5345 760.54 104.474 770.053 115.967C779.708 127.461 786.879 140.799 791.564 155.981C796.392 171.164 798.166 187.411 796.888 204.722H623.098C624.802 216.783 628.778 227.567 635.025 237.074C641.272 246.439 649.224 253.888 658.878 259.422C668.676 264.956 679.537 267.794 691.464 267.936C704.243 267.936 715.815 264.672 726.18 258.145C736.545 251.476 744.922 242.395 751.311 230.902L787.73 239.415C779.211 258.287 766.362 273.754 749.181 285.815C732.001 297.734 712.762 303.693 691.464 303.693ZM622.033 176.627H760.895C759.759 164.708 755.926 153.853 749.394 144.062C742.863 134.13 734.557 126.184 724.476 120.224C714.395 114.265 703.391 111.285 691.464 111.285C679.537 111.285 668.605 114.194 658.666 120.011C648.727 125.829 640.491 133.704 633.96 143.637C627.571 153.427 623.595 164.424 622.033 176.627Z" fill="#011F0F"/>
<path d="M940.606 121.076H892.26L892.047 298.159H856.266L856.479 121.076H819.847V85.3182H856.479L856.266 18.486H892.047L892.26 85.3182H940.606V121.076Z" fill="#011F0F"/>
<path d="M978.785 298.159V85.3182H1014.57V111.923C1022.09 101.991 1031.6 94.1156 1043.1 88.2979C1054.61 82.3384 1067.1 79.3586 1080.59 79.3586C1088.82 79.3586 1096.78 80.4228 1104.44 82.5512L1089.96 118.309C1084.14 116.464 1078.46 115.542 1072.92 115.542C1062.27 115.542 1052.48 118.167 1043.53 123.417C1034.73 128.525 1027.7 135.478 1022.45 144.275C1017.19 153.073 1014.57 162.863 1014.57 173.647V298.159H978.785Z" fill="#011F0F"/>
<path d="M1213.51 303.693C1193.92 303.693 1176.03 298.656 1159.84 288.582C1143.8 278.507 1130.95 265.027 1121.29 248.142C1111.78 231.114 1107.02 212.313 1107.02 191.739C1107.02 176.13 1109.79 161.586 1115.33 148.106C1120.87 134.484 1128.46 122.565 1138.12 112.349C1147.91 101.991 1159.27 93.9028 1172.19 88.0851C1185.11 82.2674 1198.89 79.3586 1213.51 79.3586C1233.1 79.3586 1250.92 84.3959 1266.97 94.4703C1283.15 104.545 1296 118.096 1305.52 135.123C1315.17 152.15 1320 171.022 1320 191.739C1320 207.205 1317.23 221.678 1311.69 235.158C1306.16 248.638 1298.49 260.557 1288.69 270.916C1279.04 281.132 1267.75 289.149 1254.83 294.967C1242.05 300.784 1228.28 303.693 1213.51 303.693ZM1213.51 267.936C1226.86 267.936 1238.86 264.46 1249.5 257.507C1260.3 250.412 1268.74 241.118 1274.85 229.625C1281.1 217.989 1284.22 205.361 1284.22 191.739C1284.22 177.833 1281.03 165.063 1274.64 153.427C1268.39 141.792 1259.94 132.498 1249.29 125.545C1238.64 118.592 1226.72 115.116 1213.51 115.116C1200.16 115.116 1188.17 118.663 1177.52 125.758C1166.87 132.711 1158.42 142.005 1152.17 153.64C1145.93 165.276 1142.8 177.975 1142.8 191.739C1142.8 205.928 1146 218.841 1152.39 230.476C1158.78 241.969 1167.37 251.122 1178.16 257.932C1188.95 264.601 1200.73 267.936 1213.51 267.936Z" fill="#011F0F"/>
</svg>
