<svg width="24" height="24" viewBox="0 0 24 24" fill="none" xmlns="http://www.w3.org/2000/svg">
<path d="M17.5399 3.38965C18.8986 3.38965 19.9999 4.49101 19.9999 5.84961C19.9999 7.20823 18.8986 8.30957 17.5399 8.30957C16.1813 8.30955 15.08 7.20822 15.08 5.84961C15.08 4.49102 16.1814 3.38967 17.5399 3.38965Z" fill="#9EE53A" stroke="#9EE53A"/>
<path d="M6.46 8.80965C8.09476 8.80965 9.42 7.48441 9.42 5.84965C9.42 4.21489 8.09476 2.88965 6.46 2.88965C4.82524 2.88965 3.5 4.21489 3.5 5.84965C3.5 7.48441 4.82524 8.80965 6.46 8.80965Z" fill="#9EE53A"/>
<path d="M17.54 21.1104C19.1748 21.1104 20.5 19.7852 20.5 18.1504C20.5 16.5157 19.1748 15.1904 17.54 15.1904C15.9052 15.1904 14.58 16.5157 14.58 18.1504C14.58 19.7852 15.9052 21.1104 17.54 21.1104Z" fill="#9EE53A"/>
<path d="M6.46 21.1104C8.09476 21.1104 9.42 19.7852 9.42 18.1504C9.42 16.5157 8.09476 15.1904 6.46 15.1904C4.82524 15.1904 3.5 16.5157 3.5 18.1504C3.5 19.7852 4.82524 21.1104 6.46 21.1104Z" fill="#9EE53A"/>
</svg>
