<svg width="16" height="16" viewBox="0 0 16 16" fill="none" xmlns="http://www.w3.org/2000/svg">
<path d="M3.3345 13.9957C3.39704 14.0584 3.46336 14.1151 3.53318 14.1665C3.46015 14.1146 3.3942 14.0587 3.33447 13.999C3.27689 13.9414 3.22292 13.878 3.17261 13.8081C3.22158 13.8739 3.27538 13.9365 3.3345 13.9957ZM3.3345 2.00435C3.27538 2.06358 3.22159 2.1262 3.17262 2.19193C3.22293 2.12202 3.27689 2.05867 3.33447 2.00109C3.3942 1.94136 3.46014 1.88552 3.53317 1.83362C3.46335 1.88497 3.39703 1.94169 3.3345 2.00435ZM12.6657 2.00435C12.6031 1.94169 12.5368 1.88497 12.467 1.83362C12.54 1.88552 12.606 1.94136 12.6657 2.00109C12.7233 2.05868 12.7772 2.12203 12.8276 2.19194C12.7786 2.1262 12.7248 2.06359 12.6657 2.00435ZM12.6657 13.9957C12.7248 13.9365 12.7786 13.8739 12.8276 13.8081C12.7773 13.878 12.7233 13.9414 12.6657 13.999C12.606 14.0587 12.54 14.1146 12.467 14.1665C12.5368 14.1151 12.6031 14.0584 12.6657 13.9957Z" fill="#FFFFFE" stroke="#FFFFFE"/>
<mask id="path-2-inside-1_803_1427" fill="white">
<path d="M9.33341 4.16663H6.66675C6.39341 4.16663 6.16675 3.93996 6.16675 3.66663C6.16675 3.39329 6.39341 3.16663 6.66675 3.16663H9.33341C9.60675 3.16663 9.83341 3.39329 9.83341 3.66663C9.83341 3.93996 9.60675 4.16663 9.33341 4.16663Z"/>
</mask>
<path d="M9.33341 4.16663H6.66675C6.39341 4.16663 6.16675 3.93996 6.16675 3.66663C6.16675 3.39329 6.39341 3.16663 6.66675 3.16663H9.33341C9.60675 3.16663 9.83341 3.39329 9.83341 3.66663C9.83341 3.93996 9.60675 4.16663 9.33341 4.16663Z" fill="#FFFFFE"/>
<path d="M9.33341 3.16663H6.66675V5.16663H9.33341V3.16663ZM6.66675 3.16663C6.9457 3.16663 7.16675 3.38767 7.16675 3.66663H5.16675C5.16675 4.49224 5.84113 5.16663 6.66675 5.16663V3.16663ZM7.16675 3.66663C7.16675 3.94558 6.9457 4.16663 6.66675 4.16663V2.16663C5.84113 2.16663 5.16675 2.84101 5.16675 3.66663H7.16675ZM6.66675 4.16663H9.33341V2.16663H6.66675V4.16663ZM9.33341 4.16663C9.05446 4.16663 8.83341 3.94558 8.83341 3.66663H10.8334C10.8334 2.84101 10.159 2.16663 9.33341 2.16663V4.16663ZM8.83341 3.66663C8.83341 3.38767 9.05446 3.16663 9.33341 3.16663V5.16663C10.159 5.16663 10.8334 4.49224 10.8334 3.66663H8.83341Z" fill="#FFFFFE" mask="url(#path-2-inside-1_803_1427)"/>
<path d="M7.99989 13.24C7.15322 13.24 6.46655 12.5533 6.46655 11.7067C6.46655 10.86 7.15322 10.1733 7.99989 10.1733C8.84655 10.1733 9.53322 10.86 9.53322 11.7067C9.53322 12.5533 8.84655 13.24 7.99989 13.24ZM7.99989 11.1667C7.70655 11.1667 7.46655 11.4067 7.46655 11.7C7.46655 11.9933 7.70655 12.2333 7.99989 12.2333C8.29322 12.2333 8.53322 11.9933 8.53322 11.7C8.53322 11.4067 8.29322 11.1667 7.99989 11.1667Z" fill="#FFFFFE"/>
</svg>
