<svg width="24" height="24" viewBox="0 0 24 24" fill="none" xmlns="http://www.w3.org/2000/svg">
<path d="M17.5401 8.56001C16.0462 8.56001 14.8301 7.34387 14.8301 5.85001C14.8301 4.35616 16.0462 3.14001 17.5401 3.14001C19.0339 3.14001 20.2501 4.35616 20.2501 5.85001C20.2501 7.34387 19.0339 8.56001 17.5401 8.56001ZM17.5401 3.63001C16.3239 3.63001 15.3301 4.62388 15.3301 5.84001C15.3301 7.05615 16.3239 8.05001 17.5401 8.05001C18.7562 8.05001 19.7501 7.05616 19.7501 5.84001C19.7501 4.62387 18.7562 3.63001 17.5401 3.63001Z" fill="#FFFFFE" stroke="#FFFFFE"/>
<path d="M6.46001 8.56001C4.96615 8.56001 3.75 7.34387 3.75 5.85001C3.75 4.35616 4.96615 3.14001 6.46001 3.14001C7.95386 3.14001 9.17 4.35616 9.17 5.85001C9.17 7.34387 7.95386 8.56001 6.46001 8.56001ZM6.46001 3.63001C5.24387 3.63001 4.25 4.62387 4.25 5.84001C4.25 7.05616 5.24387 8.05001 6.46001 8.05001C7.67615 8.05001 8.67 7.05615 8.67 5.84001C8.67 4.62578 7.68806 3.63001 6.46001 3.63001Z" fill="#FFFFFE" stroke="#FFFFFE"/>
<path d="M17.5401 21.37C15.7701 21.37 14.3301 19.93 14.3301 18.16C14.3301 16.39 15.7701 14.95 17.5401 14.95C19.3101 14.95 20.7501 16.39 20.7501 18.16C20.7501 19.93 19.3101 21.37 17.5401 21.37ZM17.5401 16.44C16.6001 16.44 15.8301 17.21 15.8301 18.15C15.8301 19.09 16.6001 19.86 17.5401 19.86C18.4801 19.86 19.2501 19.09 19.2501 18.15C19.2501 17.21 18.4801 16.44 17.5401 16.44Z" fill="#FFFFFE"/>
<path d="M6.46001 21.37C4.69001 21.37 3.25 19.93 3.25 18.16C3.25 16.39 4.69001 14.95 6.46001 14.95C8.23001 14.95 9.67 16.39 9.67 18.16C9.67 19.93 8.23001 21.37 6.46001 21.37ZM6.46001 16.44C5.52001 16.44 4.75 17.21 4.75 18.15C4.75 19.09 5.52001 19.86 6.46001 19.86C7.40001 19.86 8.17 19.09 8.17 18.15C8.17 17.21 7.41001 16.44 6.46001 16.44Z" fill="#FFFFFE"/>
</svg>
