<svg width="16" height="16" viewBox="0 0 16 16" fill="none" xmlns="http://www.w3.org/2000/svg">
<g id="vuesax/bulk/money-add">
<g id="money-add">
<path id="Vector" opacity="0.4" d="M14.6663 5.99984V9.99984C14.6663 12.3332 13.333 13.3332 11.333 13.3332H5.63302C5.86635 12.9398 5.99967 12.4865 5.99967 11.9998C5.99967 10.5265 4.80634 9.33317 3.33301 9.33317C2.53301 9.33317 1.81967 9.68649 1.33301 10.2398V5.99984C1.33301 3.6665 2.66634 2.6665 4.66634 2.6665H11.333C13.333 2.6665 14.6663 3.6665 14.6663 5.99984Z" fill="#001010"/>
<path id="Vector_2" d="M7.99967 9.66683C8.92015 9.66683 9.66634 8.92064 9.66634 8.00016C9.66634 7.07969 8.92015 6.3335 7.99967 6.3335C7.0792 6.3335 6.33301 7.07969 6.33301 8.00016C6.33301 8.92064 7.0792 9.66683 7.99967 9.66683Z" fill="#001010"/>
<g id="Group">
<path id="Vector_3" d="M12.333 9.83317C12.0597 9.83317 11.833 9.6065 11.833 9.33317V6.6665C11.833 6.39317 12.0597 6.1665 12.333 6.1665C12.6063 6.1665 12.833 6.39317 12.833 6.6665V9.33317C12.833 9.6065 12.6063 9.83317 12.333 9.83317Z" fill="#292D32"/>
</g>
<path id="Vector_4" d="M3.33366 9.3335C1.86033 9.3335 0.666992 10.5268 0.666992 12.0002C0.666992 12.5002 0.806983 12.9735 1.05365 13.3735C1.51365 14.1468 2.36033 14.6668 3.33366 14.6668C4.30699 14.6668 5.15367 14.1468 5.61367 13.3735C5.86033 12.9735 6.00033 12.5002 6.00033 12.0002C6.00033 10.5268 4.80699 9.3335 3.33366 9.3335ZM4.32699 12.4868H3.83366V13.0068C3.83366 13.2802 3.60699 13.5068 3.33366 13.5068C3.06033 13.5068 2.83366 13.2802 2.83366 13.0068V12.4868H2.34033C2.067 12.4868 1.84033 12.2602 1.84033 11.9868C1.84033 11.7135 2.067 11.4868 2.34033 11.4868H2.83366V11.0135C2.83366 10.7402 3.06033 10.5135 3.33366 10.5135C3.60699 10.5135 3.83366 10.7402 3.83366 11.0135V11.4868H4.32699C4.60032 11.4868 4.82699 11.7135 4.82699 11.9868C4.82699 12.2602 4.60699 12.4868 4.32699 12.4868Z" fill="#292D32"/>
</g>
</g>
</svg>
