<svg width="16" height="16" viewBox="0 0 16 16" fill="none" xmlns="http://www.w3.org/2000/svg">
<g id="vuesax/outline/more-circle">
<g id="more-circle">
<path id="Vector" d="M8.00016 15.1667C4.04683 15.1667 0.833496 11.9534 0.833496 8.00004C0.833496 4.04671 4.04683 0.833374 8.00016 0.833374C11.9535 0.833374 15.1668 4.04671 15.1668 8.00004C15.1668 11.9534 11.9535 15.1667 8.00016 15.1667ZM8.00016 1.83337C4.60016 1.83337 1.8335 4.60004 1.8335 8.00004C1.8335 11.4 4.60016 14.1667 8.00016 14.1667C11.4002 14.1667 14.1668 11.4 14.1668 8.00004C14.1668 4.60004 11.4002 1.83337 8.00016 1.83337Z" fill="#8A9191"/>
<path id="Vector_2" d="M8.00016 8.66671C7.62683 8.66671 7.3335 8.36671 7.3335 8.00004C7.3335 7.63337 7.6335 7.33337 8.00016 7.33337C8.36683 7.33337 8.66683 7.63337 8.66683 8.00004C8.66683 8.36671 8.3735 8.66671 8.00016 8.66671Z" fill="#8A9191"/>
<path id="Vector_3" d="M10.6667 8.66671C10.2933 8.66671 10 8.36671 10 8.00004C10 7.63337 10.3 7.33337 10.6667 7.33337C11.0333 7.33337 11.3333 7.63337 11.3333 8.00004C11.3333 8.36671 11.04 8.66671 10.6667 8.66671Z" fill="#8A9191"/>
<path id="Vector_4" d="M5.33317 8.66671C4.95984 8.66671 4.6665 8.36671 4.6665 8.00004C4.6665 7.63337 4.9665 7.33337 5.33317 7.33337C5.69984 7.33337 5.99984 7.63337 5.99984 8.00004C5.99984 8.36671 5.7065 8.66671 5.33317 8.66671Z" fill="#8A9191"/>
</g>
</g>
</svg>
