<svg width="16" height="16" viewBox="0 0 16 16" fill="none" xmlns="http://www.w3.org/2000/svg">
<path opacity="0.4" d="M8.00016 14.6667C11.6821 14.6667 14.6668 11.6819 14.6668 8.00004C14.6668 4.31814 11.6821 1.33337 8.00016 1.33337C4.31826 1.33337 1.3335 4.31814 1.3335 8.00004C1.3335 11.6819 4.31826 14.6667 8.00016 14.6667Z" fill="#8A9191"/>
<path d="M8.00016 8.66671C7.62683 8.66671 7.3335 8.36671 7.3335 8.00004C7.3335 7.63337 7.6335 7.33337 8.00016 7.33337C8.36683 7.33337 8.66683 7.63337 8.66683 8.00004C8.66683 8.36671 8.3735 8.66671 8.00016 8.66671Z" fill="#8A9191"/>
<path d="M10.6667 8.66671C10.2933 8.66671 10 8.36671 10 8.00004C10 7.63337 10.3 7.33337 10.6667 7.33337C11.0333 7.33337 11.3333 7.63337 11.3333 8.00004C11.3333 8.36671 11.04 8.66671 10.6667 8.66671Z" fill="#8A9191"/>
<path d="M5.33317 8.66671C4.95984 8.66671 4.6665 8.36671 4.6665 8.00004C4.6665 7.63337 4.9665 7.33337 5.33317 7.33337C5.69984 7.33337 5.99984 7.63337 5.99984 8.00004C5.99984 8.36671 5.7065 8.66671 5.33317 8.66671Z" fill="#8A9191"/>
</svg>
