<svg width="16" height="16" viewBox="0 0 16 16" fill="none" xmlns="http://www.w3.org/2000/svg">
<g id="vuesax/bulk/note-text">
<g id="note-text">
<g id="Group">
<path id="Vector" d="M5.33301 3.8335C5.05967 3.8335 4.83301 3.60683 4.83301 3.3335V1.3335C4.83301 1.06016 5.05967 0.833496 5.33301 0.833496C5.60634 0.833496 5.83301 1.06016 5.83301 1.3335V3.3335C5.83301 3.60683 5.60634 3.8335 5.33301 3.8335Z" fill="#001010"/>
</g>
<g id="Group_2">
<path id="Vector_2" d="M10.667 3.8335C10.3937 3.8335 10.167 3.60683 10.167 3.3335V1.3335C10.167 1.06016 10.3937 0.833496 10.667 0.833496C10.9403 0.833496 11.167 1.06016 11.167 1.3335V3.3335C11.167 3.60683 10.9403 3.8335 10.667 3.8335Z" fill="#001010"/>
</g>
<path id="Vector_3" opacity="0.4" d="M14 5.66683V11.3335C14 13.3335 13 14.6668 10.6667 14.6668H5.33333C3 14.6668 2 13.3335 2 11.3335V5.66683C2 3.66683 3 2.3335 5.33333 2.3335H10.6667C13 2.3335 14 3.66683 14 5.66683Z" fill="#001010"/>
<g id="Group_3">
<path id="Vector_4" d="M10.6663 7.8335H5.33301C5.05967 7.8335 4.83301 7.60683 4.83301 7.3335C4.83301 7.06016 5.05967 6.8335 5.33301 6.8335H10.6663C10.9397 6.8335 11.1663 7.06016 11.1663 7.3335C11.1663 7.60683 10.9397 7.8335 10.6663 7.8335Z" fill="#001010"/>
</g>
<g id="Group_4">
<path id="Vector_5" d="M7.99967 11.1665H5.33301C5.05967 11.1665 4.83301 10.9398 4.83301 10.6665C4.83301 10.3932 5.05967 10.1665 5.33301 10.1665H7.99967C8.27301 10.1665 8.49967 10.3932 8.49967 10.6665C8.49967 10.9398 8.27301 11.1665 7.99967 11.1665Z" fill="#001010"/>
</g>
</g>
</g>
</svg>
