<svg width="24" height="24" viewBox="0 0 24 24" fill="none" xmlns="http://www.w3.org/2000/svg">
<path opacity="0.4" d="M15.3656 18.237L15.3656 18.237C16.4621 18.051 17.5467 17.7871 18.6001 17.436C19.2284 17.2235 19.7035 16.7628 19.9304 16.1563C20.1568 15.541 20.094 14.8782 19.7591 14.305L18.6323 12.4303C18.632 12.4298 18.6317 12.4293 18.6315 12.4289C18.4739 12.1699 18.3416 11.8225 18.2489 11.4908C18.156 11.1583 18.0892 10.7924 18.0892 10.49V8.62999C18.0892 5.27564 15.3626 2.54999 12.0192 2.54999C8.66537 2.54999 5.93923 5.27613 5.93923 8.62999V10.49C5.93923 10.7922 5.87247 11.1577 5.78129 11.489C5.69 11.8206 5.5609 12.166 5.41073 12.4226L5.4078 12.4276L5.40777 12.4276L4.2785 14.3064C4.2784 14.3065 4.27829 14.3067 4.27819 14.3069C3.91668 14.9125 3.84719 15.5939 4.05739 16.1544L4.05818 16.1565C4.2709 16.7317 4.75828 17.1998 5.42908 17.4262L15.3656 18.237ZM15.3656 18.237L15.3598 18.2381M15.3656 18.237L15.3598 18.2381M15.3598 18.2381C15.2459 18.2588 15.158 18.2744 15.074 18.282L15.0554 18.2837M15.3598 18.2381L15.0554 18.2837M15.0554 18.2837L15.037 18.2868M15.0554 18.2837L15.037 18.2868M15.037 18.2868C14.8727 18.3142 14.7062 18.3328 14.524 18.353L14.524 18.3529M15.037 18.2868L14.524 18.3529M14.524 18.3529L14.5117 18.3546M14.524 18.3529L14.5117 18.3546M14.5117 18.3546C14.3065 18.3826 14.0895 18.4016 13.8578 18.4217C13.2386 18.4708 12.6327 18.5 12.0192 18.5C11.3948 18.5 10.7706 18.4707 10.1566 18.4122L10.1566 18.4121M14.5117 18.3546L10.1566 18.4121M10.1566 18.4121L10.1462 18.4114M10.1566 18.4121L10.1462 18.4114M10.1462 18.4114C9.88957 18.3923 9.64262 18.3639 9.39526 18.3258L9.39527 18.3257M10.1462 18.4114L9.39527 18.3257M9.39527 18.3257L9.38531 18.3244M9.39527 18.3257L9.38531 18.3244M9.38531 18.3244C9.238 18.3047 9.09348 18.2855 8.95872 18.2663C8.89624 18.2552 8.83572 18.2469 8.78587 18.2401L8.78178 18.2396C8.72501 18.2318 8.68097 18.2257 8.63867 18.2181L8.63869 18.218M9.38531 18.3244L8.63869 18.218M8.63869 18.218L8.62926 18.2164M8.63869 18.218L8.62926 18.2164M8.62926 18.2164C7.54578 18.0407 6.47252 17.7773 5.42912 17.4262L8.62926 18.2164Z" fill="#FFFFFE" stroke="#FFFFFE"/>
<path d="M12.0002 10.26C11.8564 10.26 11.7402 10.1439 11.7402 10V6.90001C11.7402 6.75616 11.8564 6.64001 12.0002 6.64001C12.1441 6.64001 12.2602 6.75616 12.2602 6.90001V9.99264C12.2541 10.15 12.1265 10.26 12.0002 10.26Z" fill="#FFFFFE" stroke="#FFFFFE"/>
<path d="M14.8297 20.01C14.4097 21.17 13.2997 22 11.9997 22C11.2097 22 10.4297 21.68 9.87969 21.11C9.55969 20.81 9.31969 20.41 9.17969 20C9.30969 20.02 9.43969 20.03 9.57969 20.05C9.80969 20.08 10.0497 20.11 10.2897 20.13C10.8597 20.18 11.4397 20.21 12.0197 20.21C12.5897 20.21 13.1597 20.18 13.7197 20.13C13.9297 20.11 14.1397 20.1 14.3397 20.07C14.4997 20.05 14.6597 20.03 14.8297 20.01Z" fill="#FFFFFE"/>
</svg>
