<svg width="16" height="17" viewBox="0 0 16 17" fill="none" xmlns="http://www.w3.org/2000/svg">
<path opacity="0.4" d="M14.1673 6.59995C12.6273 4.17995 10.374 2.78662 8.00065 2.78662C6.81398 2.78662 5.66065 3.13329 4.60732 3.77995C3.55398 4.43329 2.60732 5.38662 1.83398 6.59995C1.16732 7.64662 1.16732 9.34662 1.83398 10.3933C3.37398 12.82 5.62732 14.2066 8.00065 14.2066C9.18732 14.2066 10.3407 13.86 11.394 13.2133C12.4473 12.56 13.394 11.6066 14.1673 10.3933C14.834 9.35329 14.834 7.64662 14.1673 6.59995ZM8.00065 11.1933C6.50732 11.1933 5.30732 9.98662 5.30732 8.49995C5.30732 7.01329 6.50732 5.80662 8.00065 5.80662C9.49398 5.80662 10.694 7.01329 10.694 8.49995C10.694 9.98662 9.49398 11.1933 8.00065 11.1933Z" fill="#8A9191"/>
<path d="M7.99961 6.59338C6.95294 6.59338 6.09961 7.44672 6.09961 8.50005C6.09961 9.54672 6.95294 10.4001 7.99961 10.4001C9.04628 10.4001 9.90628 9.54672 9.90628 8.50005C9.90628 7.45338 9.04628 6.59338 7.99961 6.59338Z" fill="#8A9191"/>
</svg>
