<svg width="92" height="16" viewBox="0 0 92 16" fill="none" xmlns="http://www.w3.org/2000/svg">
<g id="Group 34908">
<path id="Vector" d="M13.6047 1.52637H1.46768C1.06009 1.52637 0.712891 1.87062 0.712891 2.2897V3.65172C0.712891 4.0708 1.06009 4.41505 1.46768 4.41505H13.6047C14.0273 4.41505 14.3594 4.0708 14.3745 3.65172V2.30466C14.3745 1.87061 14.0273 1.52637 13.6047 1.52637ZM13.6047 9.08484H1.46768C1.27143 9.08484 1.07519 9.15967 0.939327 9.30934C0.788369 9.45902 0.712891 9.63862 0.712891 9.84816V11.2102C0.712891 11.6293 1.06009 11.9735 1.46768 11.9735H13.6047C14.0273 11.9735 14.3594 11.6442 14.3745 11.2102V9.84816C14.3594 9.41411 14.0273 9.08484 13.6047 9.08484ZM8.30605 12.8566H1.46768C1.27143 12.8566 1.07519 12.9314 0.939327 13.0811C0.803465 13.2308 0.712891 13.4104 0.712891 13.6199V14.9819C0.712891 15.401 1.06009 15.7453 1.46768 15.7453H8.29095C8.71363 15.7453 9.04574 15.401 9.04574 14.9969V13.6349C9.06083 13.1859 8.72873 12.8416 8.30605 12.8566ZM14.3745 5.29812H1.46768C1.27143 5.29812 1.07519 5.37295 0.939327 5.52262C0.803465 5.6723 0.712891 5.85191 0.712891 6.06145V7.42347C0.712891 7.84255 1.06009 8.1868 1.46768 8.1868H14.3594C14.7821 8.1868 15.1142 7.84255 15.1142 7.42347V6.06145C15.1293 5.64236 14.7821 5.31308 14.3745 5.29812Z" fill="#00C3F7"/>
<path id="Vector_2" d="M28.4885 4.57998C28.1111 4.19083 27.6733 3.89149 27.1751 3.68195C26.677 3.47241 26.1486 3.36763 25.6052 3.36763C25.0768 3.35267 24.5636 3.4724 24.0805 3.69691C23.7635 3.84659 23.4767 4.05613 23.2352 4.31057V4.07109C23.2352 3.95136 23.1899 3.83162 23.1144 3.74181C23.0389 3.65201 22.9181 3.59214 22.7823 3.59214H21.1067C20.9859 3.59214 20.8651 3.63704 20.7896 3.74181C20.6991 3.83162 20.6538 3.95136 20.6689 4.07109V15.2666C20.6689 15.3863 20.7142 15.5061 20.7896 15.5959C20.8802 15.6857 20.9859 15.7306 21.1067 15.7306H22.8276C22.9483 15.7306 23.054 15.6857 23.1446 15.5959C23.2352 15.5211 23.2955 15.4013 23.2804 15.2666V11.435C23.522 11.7044 23.839 11.899 24.1862 12.0187C24.6391 12.1833 25.107 12.2732 25.5901 12.2732C26.1335 12.2732 26.677 12.1684 27.1751 11.9588C27.6733 11.7493 28.1262 11.45 28.5036 11.0608C28.8961 10.6567 29.198 10.1777 29.4093 9.65388C29.6508 9.07016 29.7565 8.44154 29.7414 7.81291C29.7565 7.18429 29.6357 6.55566 29.4093 5.95697C29.1829 5.46305 28.881 4.9841 28.4885 4.57998ZM26.9487 8.63611C26.8581 8.87559 26.7223 9.08513 26.5411 9.2797C26.1939 9.65388 25.6958 9.86342 25.1825 9.86342C24.9259 9.86342 24.6692 9.81852 24.4277 9.69878C24.2013 9.59401 23.9899 9.45931 23.8088 9.2797C23.6276 9.10009 23.4918 8.87559 23.4012 8.63611C23.205 8.12722 23.205 7.57344 23.4012 7.06455C23.4918 6.82507 23.6427 6.61553 23.8088 6.43592C23.9899 6.25631 24.2013 6.10664 24.4277 6.00187C24.6692 5.8971 24.9259 5.83723 25.1825 5.83723C25.4542 5.83723 25.6958 5.88213 25.9524 6.00187C26.1788 6.10664 26.3902 6.24135 26.5562 6.42095C26.7374 6.60056 26.8581 6.8101 26.9638 7.04958C27.1449 7.57343 27.1299 8.12722 26.9487 8.63611ZM38.9649 3.60711H37.2591C37.1383 3.60711 37.0176 3.65201 36.9421 3.74181C36.8515 3.83162 36.8062 3.95136 36.8062 4.08606V4.2956C36.5949 4.04116 36.3232 3.84659 36.0363 3.71188C35.5684 3.48737 35.0551 3.3826 34.5419 3.3826C33.4399 3.3826 32.3983 3.81665 31.6133 4.57998C31.2057 4.9841 30.8887 5.46305 30.6774 5.9869C30.4358 6.57063 30.3151 7.19925 30.3301 7.84284C30.3151 8.47147 30.4358 9.10009 30.6774 9.69878C30.9038 10.2226 31.2057 10.7016 31.6133 11.1057C32.3832 11.884 33.4399 12.3181 34.5268 12.3181C35.04 12.333 35.5533 12.2133 36.0212 11.9888C36.3081 11.8391 36.5949 11.6445 36.8062 11.4051V11.6296C36.8062 11.7493 36.8515 11.869 36.9421 11.9588C37.0327 12.0337 37.1383 12.0935 37.2591 12.0935H38.9649C39.0857 12.0935 39.2064 12.0486 39.2819 11.9588C39.3725 11.869 39.4178 11.7493 39.4178 11.6296V4.10103C39.4178 3.98129 39.3725 3.86155 39.297 3.77175C39.2064 3.66698 39.0857 3.60711 38.9649 3.60711ZM36.6553 8.63611C36.5647 8.87559 36.4288 9.08513 36.2477 9.2797C36.0665 9.45931 35.8703 9.60898 35.6438 9.71375C35.1608 9.93826 34.6022 9.93826 34.1192 9.71375C33.8927 9.60898 33.6814 9.45931 33.5003 9.2797C33.3191 9.10009 33.1832 8.87559 33.0927 8.63611C32.9115 8.12722 32.9115 7.57344 33.0927 7.06455C33.1832 6.82507 33.3191 6.6305 33.5003 6.43592C33.6814 6.25631 33.8776 6.10664 34.1192 6.00187C34.6022 5.77736 35.1608 5.77736 35.6288 6.00187C35.8552 6.10664 36.0665 6.24135 36.2326 6.42095C36.3986 6.60056 36.5345 6.8101 36.6402 7.04958C36.8515 7.57343 36.8515 8.12722 36.6553 8.63611ZM55.9627 7.61833C55.7212 7.40879 55.4344 7.22919 55.1324 7.10945C54.8154 6.97474 54.4682 6.88494 54.1361 6.8101L52.8379 6.55566C52.5058 6.49579 52.2643 6.40599 52.1435 6.30122C52.0378 6.22638 51.9623 6.10664 51.9623 5.97194C51.9623 5.83723 52.0378 5.71749 52.2039 5.61272C52.4303 5.49298 52.6718 5.43311 52.9285 5.44808C53.2606 5.44808 53.5927 5.52292 53.8946 5.64266C54.1965 5.77736 54.4833 5.91207 54.7551 6.09168C55.1324 6.33115 55.4646 6.28625 55.691 6.01684L56.3099 5.31338C56.4307 5.19364 56.4911 5.04397 56.5062 4.87933C56.4911 4.69972 56.4005 4.55005 56.2646 4.43031C56.008 4.2058 55.5853 3.96632 55.0268 3.72685C54.4682 3.48737 53.7587 3.36763 52.9285 3.36763C52.4152 3.35267 51.9171 3.4275 51.434 3.57717C51.0264 3.71188 50.6339 3.90646 50.2867 4.1609C49.9697 4.40037 49.7282 4.69972 49.547 5.05893C49.381 5.40318 49.2904 5.77736 49.2904 6.15154C49.2904 6.85501 49.5017 7.42376 49.9244 7.84284C50.3471 8.26193 50.9056 8.54631 51.6 8.68101L52.9587 8.98036C53.2455 9.02526 53.5474 9.11506 53.8191 9.24976C53.9701 9.30963 54.0606 9.45931 54.0606 9.62395C54.0606 9.77362 53.9852 9.90833 53.8191 10.0281C53.6531 10.1478 53.3813 10.2226 53.019 10.2226C52.6567 10.2226 52.2793 10.1478 51.9472 9.98316C51.6302 9.83349 51.3434 9.63891 51.0717 9.41441C50.9509 9.3246 50.8302 9.24977 50.6792 9.1899C50.5282 9.14499 50.332 9.1899 50.1358 9.35454L49.3961 9.90833C49.1847 10.058 49.0791 10.3124 49.1394 10.5519C49.1847 10.8064 49.381 11.0458 49.7584 11.3302C50.6943 11.9588 51.8114 12.2881 52.9436 12.2582C53.4719 12.2582 54.0003 12.1983 54.4984 12.0486C54.9362 11.9139 55.3438 11.7194 55.7061 11.45C56.0382 11.2105 56.3099 10.8962 56.4911 10.522C56.6722 10.1628 56.7628 9.77362 56.7628 9.36951C56.7779 9.01029 56.7024 8.65108 56.5514 8.3218C56.4005 8.08232 56.2042 7.82788 55.9627 7.61833ZM63.42 9.66885C63.3445 9.53415 63.2087 9.44434 63.0426 9.41441C62.8917 9.41441 62.7256 9.45931 62.6048 9.54911C62.3935 9.68382 62.152 9.75865 61.9104 9.77362C61.8349 9.77362 61.7444 9.75865 61.6689 9.74369C61.5783 9.72872 61.5028 9.68382 61.4425 9.62395C61.367 9.54911 61.3066 9.45931 61.2613 9.36951C61.2009 9.21983 61.1707 9.07016 61.1858 8.92049V5.8522H63.3898C63.5257 5.8522 63.6464 5.79233 63.737 5.70253C63.8276 5.61272 63.888 5.50795 63.888 5.37325V4.07109C63.888 3.93639 63.8427 3.81665 63.737 3.74181C63.6464 3.65201 63.5257 3.60711 63.4049 3.60711H61.1858V1.51169C61.1858 1.39196 61.1405 1.25725 61.05 1.18241C60.9594 1.10758 60.8537 1.06268 60.733 1.04771H59.012C58.8913 1.04771 58.7705 1.09261 58.6799 1.18241C58.5894 1.27222 58.529 1.39196 58.529 1.51169V3.60711H57.5478C57.427 3.60711 57.3062 3.65201 57.2157 3.75678C57.1402 3.84659 57.0949 3.96632 57.0949 4.08606V5.38821C57.0949 5.50795 57.1402 5.62769 57.2157 5.71749C57.2911 5.82227 57.4119 5.86717 57.5478 5.86717H58.529V9.51918C58.5139 9.95323 58.6045 10.3873 58.7856 10.7764C58.9517 11.1057 59.163 11.3901 59.4498 11.6296C59.7215 11.8541 60.0386 12.0187 60.3858 12.1085C60.733 12.2133 61.0953 12.2732 61.4576 12.2732C61.9255 12.2732 62.4086 12.1983 62.8615 12.0486C63.2841 11.9139 63.6615 11.6745 63.9634 11.3601C64.1597 11.1656 64.1748 10.8513 64.0238 10.6268L63.42 9.66885ZM72.7492 3.60711H71.0434C70.9226 3.60711 70.8169 3.65201 70.7263 3.74181C70.6358 3.83162 70.5905 3.95136 70.5905 4.08606V4.2956C70.3791 4.04116 70.1225 3.84659 69.8206 3.71188C69.3526 3.48737 68.8394 3.3826 68.3261 3.3826C67.2241 3.3826 66.1825 3.81665 65.3975 4.57998C64.99 4.9841 64.6729 5.46305 64.4616 5.9869C64.2201 6.57063 64.0993 7.19925 64.1144 7.82788C64.0993 8.4565 64.2201 9.08513 64.4616 9.68382C64.6729 10.2077 65.0051 10.6866 65.3975 11.0907C66.1674 11.869 67.209 12.3031 68.311 12.3031C68.8243 12.3181 69.3375 12.1983 69.8055 11.9888C70.1074 11.8391 70.3791 11.6445 70.5905 11.4051V11.6296C70.5905 11.7493 70.6358 11.869 70.7263 11.9439C70.8169 12.0337 70.9226 12.0786 71.0434 12.0786H72.7492C73.0058 12.0786 73.202 11.884 73.202 11.6296V4.10103C73.202 3.98129 73.1568 3.86155 73.0813 3.77175C73.0058 3.66698 72.885 3.60711 72.7492 3.60711ZM70.4546 8.63611C70.364 8.87559 70.2282 9.08513 70.047 9.2797C69.8659 9.45931 69.6696 9.60898 69.4432 9.71375C69.2017 9.81852 68.945 9.87839 68.6733 9.87839C68.4016 9.87839 68.1601 9.81852 67.9185 9.71375C67.6921 9.60898 67.4808 9.45931 67.2996 9.2797C67.1185 9.10009 66.9826 8.87559 66.9071 8.63611C66.726 8.12722 66.726 7.57344 66.9071 7.06455C66.9977 6.82507 67.1336 6.61553 67.2996 6.43592C67.4808 6.25631 67.6921 6.10664 67.9185 6.00187C68.1601 5.8971 68.4167 5.83723 68.6733 5.83723C68.9299 5.83723 69.1866 5.88213 69.4432 6.00187C69.6696 6.10664 69.8659 6.24135 70.047 6.42095C70.2282 6.60056 70.364 6.8101 70.4546 7.04958C70.6509 7.55847 70.6509 8.12722 70.4546 8.63611ZM82.1085 9.54911L81.1273 8.80075C80.9462 8.65107 80.765 8.60617 80.614 8.66604C80.4782 8.72591 80.3574 8.81572 80.2517 8.92049C80.0404 9.17493 79.7838 9.39944 79.5121 9.59401C79.2101 9.75865 78.8931 9.84846 78.561 9.81852C78.1685 9.81852 77.8062 9.71375 77.4892 9.48924C77.1722 9.26473 76.9307 8.96539 76.8099 8.59121C76.7193 8.33676 76.6741 8.08232 76.6741 7.82788C76.6741 7.55846 76.7193 7.30402 76.8099 7.03461C76.9005 6.79514 77.0213 6.58559 77.2024 6.40599C77.3836 6.22638 77.5798 6.07671 77.8062 5.9869C78.0478 5.88213 78.3044 5.82226 78.5761 5.82226C78.9082 5.8073 79.2403 5.8971 79.5271 6.06174C79.814 6.24135 80.0555 6.46586 80.2668 6.73527C80.3574 6.84004 80.4782 6.92984 80.614 6.98971C80.765 7.04958 80.9462 7.00468 81.1273 6.855L82.1085 6.12161C82.2293 6.04677 82.3199 5.92704 82.3652 5.79233C82.4255 5.64266 82.4104 5.47802 82.3199 5.34331C81.9425 4.75959 81.4292 4.28064 80.8103 3.93639C80.1612 3.57718 79.3913 3.3826 78.5308 3.3826C77.927 3.3826 77.3232 3.50234 76.7495 3.72685C76.2061 3.95136 75.723 4.26567 75.3154 4.66978C74.9079 5.0739 74.5758 5.55286 74.3493 6.09168C73.8813 7.21422 73.8813 8.47147 74.3493 9.59401C74.5758 10.1179 74.8928 10.6118 75.3154 11.0009C76.1759 11.8391 77.3232 12.2881 78.5308 12.2881C79.3913 12.2881 80.1612 12.0935 80.8103 11.7343C81.4292 11.3901 81.9576 10.9111 82.335 10.3124C82.4104 10.1777 82.4255 10.0131 82.3802 9.87839C82.3199 9.75865 82.2293 9.63891 82.1085 9.54911ZM91.1962 11.3003L88.494 7.37886L90.8037 4.35547C90.9093 4.22077 90.9546 4.02619 90.8942 3.86155C90.849 3.74182 90.7433 3.62208 90.4565 3.62208H88.6299C88.5242 3.62208 88.4185 3.65201 88.328 3.69691C88.2072 3.75678 88.1166 3.84658 88.0562 3.95136L86.2146 6.51076H85.7768V0.463986C85.7768 0.344248 85.7315 0.224508 85.6409 0.134704C85.5503 0.0449009 85.4447 0 85.3239 0H83.6181C83.4973 0 83.3766 0.0449009 83.286 0.134704C83.1954 0.224508 83.1501 0.329281 83.1501 0.463986V11.6146C83.1501 11.7493 83.1954 11.8541 83.286 11.9439C83.3766 12.0337 83.4973 12.0786 83.6181 12.0786H85.3239C85.4447 12.0786 85.5654 12.0337 85.6409 11.9439C85.7315 11.8541 85.7768 11.7343 85.7768 11.6146V8.66604H86.2598L88.2676 11.7194C88.3883 11.9439 88.6148 12.0786 88.8563 12.0786H90.7735C91.0603 12.0786 91.1811 11.9439 91.2414 11.8241C91.3169 11.6445 91.3018 11.45 91.1962 11.3003ZM48.6564 3.60711H46.7392C46.5883 3.60711 46.4524 3.65201 46.3467 3.75678C46.2561 3.84659 46.1958 3.95136 46.1656 4.07109L44.7466 9.2797H44.3994L42.8898 4.07109C42.8596 3.96632 42.8143 3.86155 42.7388 3.75678C42.6483 3.65201 42.5275 3.59214 42.3916 3.59214H40.4443C40.1877 3.59214 40.0367 3.66698 39.9612 3.84659C39.9159 3.99626 39.9159 4.1609 39.9612 4.31057L42.3765 11.6445C42.4218 11.7493 42.4671 11.869 42.5577 11.9439C42.6483 12.0337 42.7841 12.0786 42.92 12.0786H43.9465L43.8559 12.3181L43.6295 12.9916C43.554 13.2011 43.4332 13.3807 43.2521 13.5154C43.086 13.6352 42.8898 13.71 42.6785 13.695C42.4973 13.695 42.3313 13.6501 42.1652 13.5903C41.9992 13.5154 41.8482 13.4256 41.7123 13.3209C41.5916 13.2311 41.4406 13.1862 41.2746 13.1862H41.2595C41.0783 13.2011 40.9123 13.2909 40.8217 13.4556L40.2179 14.3386C39.9763 14.7278 40.1122 14.9673 40.2631 15.102C40.5952 15.4013 40.9726 15.6258 41.3953 15.7605C41.8633 15.9252 42.3464 16 42.8294 16C43.705 16 44.4296 15.7605 44.9881 15.2965C45.5617 14.7877 45.9995 14.1291 46.2109 13.3807L49.0187 4.31057C49.0791 4.14593 49.0941 3.98129 49.0338 3.83162C49.0187 3.72685 48.913 3.60711 48.6564 3.60711Z" fill="#011B33"/>
</g>
</svg>
