<svg width="16" height="16" viewBox="0 0 16 16" fill="none" xmlns="http://www.w3.org/2000/svg">
<g id="vuesax/outline/mobile">
<g id="mobile">
<path id="Vector" d="M3.16113 13.7914C3.21322 13.863 3.27009 13.9315 3.33398 13.9955C3.39919 14.0608 3.46888 14.1192 3.54199 14.1722C3.46547 14.1186 3.3961 14.0615 3.33398 13.9994C3.27198 13.9374 3.2147 13.8677 3.16113 13.7914ZM12.833 13.7972C12.7806 13.8712 12.7254 13.939 12.665 13.9994C12.6028 14.0616 12.5328 14.1185 12.4561 14.1722C12.5293 14.1191 12.5997 14.0609 12.665 13.9955C12.7271 13.9333 12.7821 13.8666 12.833 13.7972ZM3.54785 1.82361C3.47263 1.87774 3.40089 1.93725 3.33398 2.00427C3.26864 2.06975 3.21023 2.13988 3.15723 2.21326C3.21175 2.13493 3.27066 2.06467 3.33398 2.00134C3.39779 1.93754 3.46881 1.87848 3.54785 1.82361ZM12.4502 1.82361C12.5294 1.87856 12.6011 1.93742 12.665 2.00134C12.7268 2.06316 12.7835 2.13229 12.8369 2.20837C12.7849 2.13698 12.7288 2.06814 12.665 2.00427C12.598 1.93706 12.5256 1.87786 12.4502 1.82361Z" fill="#FFFFFE" stroke="#FFFFFE"/>
<g id="Vector_2">
<mask id="path-2-inside-1_1929_2085" fill="white">
<path d="M9.33268 4.16663H6.66602C6.39268 4.16663 6.16602 3.93996 6.16602 3.66663C6.16602 3.39329 6.39268 3.16663 6.66602 3.16663H9.33268C9.60602 3.16663 9.83268 3.39329 9.83268 3.66663C9.83268 3.93996 9.60602 4.16663 9.33268 4.16663Z"/>
</mask>
<path d="M9.33268 4.16663H6.66602C6.39268 4.16663 6.16602 3.93996 6.16602 3.66663C6.16602 3.39329 6.39268 3.16663 6.66602 3.16663H9.33268C9.60602 3.16663 9.83268 3.39329 9.83268 3.66663C9.83268 3.93996 9.60602 4.16663 9.33268 4.16663Z" fill="#FFFFFE"/>
<path d="M9.33268 3.16663H6.66602V5.16663H9.33268V3.16663ZM6.66602 3.16663C6.94497 3.16663 7.16602 3.38767 7.16602 3.66663H5.16602C5.16602 4.49224 5.8404 5.16663 6.66602 5.16663V3.16663ZM7.16602 3.66663C7.16602 3.94558 6.94497 4.16663 6.66602 4.16663V2.16663C5.8404 2.16663 5.16602 2.84101 5.16602 3.66663H7.16602ZM6.66602 4.16663H9.33268V2.16663H6.66602V4.16663ZM9.33268 4.16663C9.05373 4.16663 8.83268 3.94558 8.83268 3.66663H10.8327C10.8327 2.84101 10.1583 2.16663 9.33268 2.16663V4.16663ZM8.83268 3.66663C8.83268 3.38767 9.05373 3.16663 9.33268 3.16663V5.16663C10.1583 5.16663 10.8327 4.49224 10.8327 3.66663H8.83268Z" fill="#FFFFFE" mask="url(#path-2-inside-1_1929_2085)"/>
</g>
<path id="Vector_3" d="M8.00013 13.24C7.15346 13.24 6.4668 12.5533 6.4668 11.7067C6.4668 10.86 7.15346 10.1733 8.00013 10.1733C8.8468 10.1733 9.53346 10.86 9.53346 11.7067C9.53346 12.5533 8.8468 13.24 8.00013 13.24ZM8.00013 11.1667C7.7068 11.1667 7.4668 11.4067 7.4668 11.7C7.4668 11.9933 7.7068 12.2333 8.00013 12.2333C8.29346 12.2333 8.53346 11.9933 8.53346 11.7C8.53346 11.4067 8.29346 11.1667 8.00013 11.1667Z" fill="#FFFFFE"/>
</g>
</g>
</svg>
