<svg width="65" height="68" viewBox="0 0 65 68" fill="none" xmlns="http://www.w3.org/2000/svg">
<path d="M27.0756 2.45721C30.2687 0.51426 34.2788 0.514262 37.4719 2.45722L39.5319 3.7107C40.8395 4.50637 42.3124 4.99123 43.8369 5.12795L46.259 5.34514C49.9497 5.6761 53.1549 8.02077 54.5878 11.438L55.5944 13.8382C56.177 15.2275 57.0659 16.4672 58.1947 17.4647L60.1688 19.2091C62.907 21.6286 64.1075 25.3491 63.2999 28.9127L62.6946 31.5841C62.3649 33.0391 62.3649 34.5494 62.6946 36.0043L63.2999 38.6757C64.1075 42.2394 62.907 45.9598 60.1688 48.3794L58.1947 50.1238C57.0659 51.1213 56.177 52.3609 55.5944 53.7502L54.5878 56.1504C53.1549 59.5677 49.9497 61.9123 46.259 62.2433L43.8369 62.4605C42.3124 62.5972 40.8395 63.0821 39.5319 63.8777L37.4719 65.1312C34.2788 67.0742 30.2687 67.0742 27.0756 65.1312L25.0156 63.8777C23.708 63.0821 22.2351 62.5972 20.7106 62.4605L18.2885 62.2433C14.5978 61.9123 11.3926 59.5677 9.95965 56.1504L8.95311 53.7502C8.37054 52.3609 7.48163 51.1213 6.35276 50.1238L4.37865 48.3794C1.64045 45.9598 0.439979 42.2394 1.24755 38.6757L1.85292 36.0043C2.18262 34.5494 2.18262 33.0391 1.85292 31.5841L1.24755 28.9127C0.439979 25.3491 1.64045 21.6286 4.37865 19.2091L6.35275 17.4647C7.48163 16.4672 8.37054 15.2275 8.95312 13.8382L9.95965 11.438C11.3926 8.02077 14.5978 5.6761 18.2885 5.34514L20.7106 5.12795C22.2351 4.99123 23.708 4.50637 25.0156 3.7107L27.0756 2.45721Z" fill="url(#paint0_linear_4719_32535)" stroke="#EE9CB7" stroke-width="2"/>
<rect x="37.7266" y="23.2942" width="11.4545" height="14" rx="5.72727" fill="#F4BCCF"/>
<circle cx="44.728" cy="30.2941" r="4.45455" fill="#9B1C46"/>
<circle cx="46.636" cy="28.385" r="1.27273" fill="#FBEAEF"/>
<rect x="16.2734" y="23.2942" width="11.4545" height="14" rx="5.72727" fill="#F4BCCF"/>
<circle cx="23.2749" cy="30.2941" r="4.45455" fill="#9B1C46"/>
<circle cx="25.1829" cy="28.385" r="1.27273" fill="#FBEAEF"/>
<defs>
<linearGradient id="paint0_linear_4719_32535" x1="32.2737" y1="1" x2="32.2737" y2="66.5884" gradientUnits="userSpaceOnUse">
<stop stop-color="#781636"/>
<stop offset="1" stop-color="#4D071E"/>
</linearGradient>
</defs>
</svg>
