<svg width="22" height="22" viewBox="0 0 22 22" fill="none" xmlns="http://www.w3.org/2000/svg">
<g id="vuesax/bulk/send-2">
<g id="send-2">
<path id="Vector" opacity="0.4" d="M6.51705 5.46351L14.7854 2.70434C18.4979 1.46684 20.5145 3.49267 19.2862 7.20517L16.527 15.4735C14.6754 21.0377 11.632 21.0377 9.78038 15.4735L8.96454 13.0168L6.50788 12.201C0.952878 10.3585 0.952878 7.32434 6.51705 5.46351Z" fill="#001010"/>
<path id="Vector_2" d="M11.1104 10.6608L14.6029 7.15918L11.1104 10.6608Z" fill="#001010"/>
<path id="Vector_3" d="M11.11 11.3485C10.9358 11.3485 10.7617 11.2843 10.6242 11.1468C10.3583 10.881 10.3583 10.441 10.6242 10.1752L14.1075 6.6735C14.3733 6.40766 14.8133 6.40766 15.0792 6.6735C15.345 6.93933 15.345 7.37933 15.0792 7.64516L11.5958 11.1468C11.4583 11.2752 11.2842 11.3485 11.11 11.3485Z" fill="#001010"/>
</g>
</g>
</svg>
