<svg width="42" height="42" viewBox="0 0 42 42" fill="none" xmlns="http://www.w3.org/2000/svg">
<rect width="42" height="42" rx="21" fill="#F0F0F0"/>
<path opacity="0.4" d="M16.518 15.4633L24.7864 12.7042C28.4989 11.4667 30.5155 13.4925 29.2872 17.205L26.528 25.4733C24.6764 31.0375 21.633 31.0375 19.7814 25.4733L18.9655 23.0167L16.5089 22.2008C10.9539 20.3583 10.9539 17.3242 16.518 15.4633Z" fill="#001010"/>
<path d="M21.1094 20.6608L24.6019 17.1592L21.1094 20.6608Z" fill="#001010"/>
<path d="M21.109 21.3483C20.9349 21.3483 20.7607 21.2841 20.6232 21.1466C20.3574 20.8808 20.3574 20.4408 20.6232 20.175L24.1065 16.6733C24.3724 16.4075 24.8124 16.4075 25.0782 16.6733C25.344 16.9391 25.344 17.3791 25.0782 17.645L21.5949 21.1466C21.4574 21.275 21.2832 21.3483 21.109 21.3483Z" fill="#001010"/>
</svg>
