<svg width="24" height="25" viewBox="0 0 24 25" fill="none" xmlns="http://www.w3.org/2000/svg">
<rect y="0.5" width="24" height="24" rx="6" fill="#FFFFFE"/>
<path opacity="0.4" d="M15.333 18.1667H8.66634C6.66634 18.1667 5.33301 17.1667 5.33301 14.8334V10.1667C5.33301 7.83337 6.66634 6.83337 8.66634 6.83337H15.333C17.333 6.83337 18.6663 7.83337 18.6663 10.1667V14.8334C18.6663 17.1667 17.333 18.1667 15.333 18.1667Z" fill="#001010"/>
<path d="M12.0002 13.08C11.4402 13.08 10.8735 12.9066 10.4402 12.5533L8.35351 10.8866C8.14018 10.7133 8.10018 10.4 8.27351 10.1866C8.44685 9.97331 8.76018 9.93332 8.97352 10.1066L11.0602 11.7733C11.5668 12.18 12.4268 12.18 12.9335 11.7733L15.0202 10.1066C15.2335 9.93332 15.5535 9.96665 15.7202 10.1866C15.8935 10.4 15.8602 10.72 15.6402 10.8866L13.5535 12.5533C13.1268 12.9066 12.5602 13.08 12.0002 13.08Z" fill="#001010"/>
</svg>
