<svg width="25" height="25" viewBox="0 0 25 25" fill="none" xmlns="http://www.w3.org/2000/svg">
<rect x="0.5" y="0.5" width="24" height="24" rx="6" fill="white"/>
<path opacity="0.4" d="M15.834 18.1668H9.16732C7.16732 18.1668 5.83398 17.1668 5.83398 14.8335V10.1668C5.83398 7.8335 7.16732 6.8335 9.16732 6.8335H15.834C17.834 6.8335 19.1673 7.8335 19.1673 10.1668V14.8335C19.1673 17.1668 17.834 18.1668 15.834 18.1668Z" fill="#001010"/>
<path d="M12.4992 13.08C11.9392 13.08 11.3725 12.9066 10.9392 12.5533L8.85253 10.8866C8.6392 10.7133 8.5992 10.4 8.77254 10.1866C8.94587 9.97331 9.25921 9.93332 9.47254 10.1066L11.5592 11.7733C12.0659 12.18 12.9259 12.18 13.4325 11.7733L15.5192 10.1066C15.7325 9.93332 16.0525 9.96665 16.2192 10.1866C16.3925 10.4 16.3592 10.72 16.1392 10.8866L14.0525 12.5533C13.6259 12.9066 13.0592 13.08 12.4992 13.08Z" fill="#001010"/>
</svg>
