<svg width="16" height="16" viewBox="0 0 16 16" fill="none" xmlns="http://www.w3.org/2000/svg">
<path opacity="0.4" d="M11.3333 13.6667H4.66668C2.66668 13.6667 1.33334 12.6667 1.33334 10.3334V5.66671C1.33334 3.33337 2.66668 2.33337 4.66668 2.33337H11.3333C13.3333 2.33337 14.6667 3.33337 14.6667 5.66671V10.3334C14.6667 12.6667 13.3333 13.6667 11.3333 13.6667Z" fill="#001010"/>
<path d="M7.99999 8.57998C7.43999 8.57998 6.87333 8.40665 6.44 8.05331L4.35333 6.38665C4.13999 6.21331 4.1 5.89998 4.27333 5.68665C4.44666 5.47331 4.76 5.43332 4.97333 5.60665L7.05999 7.27332C7.56666 7.67998 8.42666 7.67998 8.93332 7.27332L11.02 5.60665C11.2333 5.43332 11.5533 5.46665 11.72 5.68665C11.8933 5.89998 11.86 6.21998 11.64 6.38665L9.55333 8.05331C9.12666 8.40665 8.55999 8.57998 7.99999 8.57998Z" fill="#001010"/>
</svg>
