<svg width="24" height="24" viewBox="0 0 24 24" fill="none" xmlns="http://www.w3.org/2000/svg">
<rect width="24" height="24" rx="6" fill="#FFFFFE"/>
<path opacity="0.4" d="M15.3333 17.6667H8.66668C6.66668 17.6667 5.33334 16.6667 5.33334 14.3334V9.66671C5.33334 7.33337 6.66668 6.33337 8.66668 6.33337H15.3333C17.3333 6.33337 18.6667 7.33337 18.6667 9.66671V14.3334C18.6667 16.6667 17.3333 17.6667 15.3333 17.6667Z" fill="#001010"/>
<path d="M12 12.58C11.44 12.58 10.8733 12.4066 10.44 12.0533L8.35333 10.3866C8.13999 10.2133 8.1 9.89998 8.27333 9.68665C8.44666 9.47331 8.76 9.43332 8.97333 9.60665L11.06 11.2733C11.5667 11.68 12.4267 11.68 12.9333 11.2733L15.02 9.60665C15.2333 9.43332 15.5533 9.46665 15.72 9.68665C15.8933 9.89998 15.86 10.22 15.64 10.3866L13.5533 12.0533C13.1267 12.4066 12.56 12.58 12 12.58Z" fill="#001010"/>
</svg>
