<svg width="16" height="17" viewBox="0 0 16 17" fill="none" xmlns="http://www.w3.org/2000/svg">
<path d="M12 1.92175H4C2.89333 1.92175 2 2.80842 2 3.90175V11.1751C2 12.2684 2.89333 13.1551 4 13.1551H4.50667C5.04 13.1551 5.54667 13.3618 5.92 13.7351L7.06 14.8618C7.58 15.3751 8.42667 15.3751 8.94667 14.8618L10.0867 13.7351C10.46 13.3618 10.9733 13.1551 11.5 13.1551H12C13.1067 13.1551 14 12.2684 14 11.1751V3.90175C14 2.80842 13.1067 1.92175 12 1.92175ZM6.92 9.26175C7.19333 9.26175 7.42 9.48842 7.42 9.76175C7.42 10.0351 7.19333 10.2618 6.92 10.2618H5.13333C4.84 10.2618 4.56667 10.1218 4.39333 9.88175C4.22667 9.65509 4.18667 9.37509 4.26667 9.10842C4.5 8.39509 5.07333 8.00842 5.58 7.66175C6.11333 7.30175 6.41333 7.07509 6.41333 6.68842C6.41333 6.34175 6.13333 6.06175 5.78667 6.06175C5.44 6.06175 5.16667 6.34842 5.16667 6.69509C5.16667 6.96842 4.94 7.19509 4.66667 7.19509C4.39333 7.19509 4.16667 6.96842 4.16667 6.69509C4.16667 5.80175 4.89333 5.06842 5.79333 5.06842C6.69333 5.06842 7.42 5.79509 7.42 6.69509C7.42 7.63509 6.71333 8.11509 6.14667 8.50175C5.79333 8.74175 5.46 8.96842 5.29333 9.26842H6.92V9.26175ZM11.3333 9.30842H11.1933V9.76842C11.1933 10.0418 10.9667 10.2684 10.6933 10.2684C10.42 10.2684 10.1933 10.0418 10.1933 9.76842V9.30842H8.88667C8.88667 9.30842 8.88667 9.30842 8.88 9.30842C8.55333 9.30842 8.25333 9.13509 8.08667 8.85509C7.92 8.56842 7.92 8.21509 8.08667 7.93509C8.54 7.15509 9.06667 6.26842 9.54667 5.49509C9.76 5.15509 10.1667 5.00175 10.5467 5.10842C10.9267 5.22175 11.1933 5.56842 11.1867 5.96842V8.31509H11.3333C11.6067 8.31509 11.8333 8.54175 11.8333 8.81509C11.8333 9.08842 11.6067 9.30842 11.3333 9.30842Z" fill="#0A84FF"/>
<path d="M10.1933 8.30845V6.34845C9.79994 6.98845 9.39328 7.67512 9.02661 8.30178H10.1933V8.30845Z" fill="#0A84FF"/>
</svg>
