<svg width="16" height="16" viewBox="0 0 16 16" fill="none" xmlns="http://www.w3.org/2000/svg">
<g id="vuesax/outline/text-underline">
<g id="text-underline">
<path id="Vector" d="M12.6667 14.5H3.33337C3.06004 14.5 2.83337 14.2733 2.83337 14C2.83337 13.7267 3.06004 13.5 3.33337 13.5H12.6667C12.94 13.5 13.1667 13.7267 13.1667 14C13.1667 14.2733 12.94 14.5 12.6667 14.5Z" fill="#292D32"/>
<path id="Vector_2" d="M8.00004 11.8333C5.15337 11.8333 2.83337 9.51333 2.83337 6.66667V2C2.83337 1.72667 3.06004 1.5 3.33337 1.5C3.60671 1.5 3.83337 1.72667 3.83337 2V6.66667C3.83337 8.96667 5.70004 10.8333 8.00004 10.8333C10.3 10.8333 12.1667 8.96667 12.1667 6.66667V2C12.1667 1.72667 12.3934 1.5 12.6667 1.5C12.94 1.5 13.1667 1.72667 13.1667 2V6.66667C13.1667 9.51333 10.8467 11.8333 8.00004 11.8333Z" fill="#001010"/>
</g>
</g>
</svg>
