<svg width="16" height="16" viewBox="0 0 16 16" fill="none" xmlns="http://www.w3.org/2000/svg">
<g id="vuesax/outline/text-bold">
<g id="text-bold">
<path id="Vector" d="M7.99996 8.49996H3.2533C2.97996 8.49996 2.7533 8.27329 2.7533 7.99996V2.99996C2.7533 1.98663 3.5733 1.16663 4.58663 1.16663H7.99996C10.02 1.16663 11.6666 2.81329 11.6666 4.83329C11.6666 6.85329 10.02 8.49996 7.99996 8.49996ZM3.74663 7.49996H7.99996C9.4733 7.49996 10.6666 6.30663 10.6666 4.83329C10.6666 3.35996 9.4733 2.16663 7.99996 2.16663H4.58663C4.12663 2.16663 3.7533 2.53996 3.7533 2.99996V7.49996H3.74663Z" fill="#292D32"/>
<path id="Vector_2" d="M9.58663 14.8333H4.58663C3.5733 14.8333 2.7533 14.0133 2.7533 13V8C2.7533 7.72667 2.97996 7.5 3.2533 7.5H9.58663C11.6066 7.5 13.2533 9.14667 13.2533 11.1667C13.2533 13.1867 11.6066 14.8333 9.58663 14.8333ZM3.74663 8.5V13C3.74663 13.46 4.11996 13.8333 4.57996 13.8333H9.57996C11.0533 13.8333 12.2466 12.64 12.2466 11.1667C12.2466 9.69333 11.0533 8.5 9.57996 8.5H3.74663Z" fill="#001010"/>
</g>
</g>
</svg>
