<svg width="16" height="16" viewBox="0 0 16 16" fill="none" xmlns="http://www.w3.org/2000/svg">
<g id="vuesax/outline/text-italic">
<g id="text-italic">
<path id="Vector" d="M12.5867 2.5H6.41338C6.14004 2.5 5.92004 2.27333 5.92004 2C5.92004 1.72667 6.14671 1.5 6.42004 1.5H12.5867C12.86 1.5 13.0867 1.72667 13.0867 2C13.0867 2.27333 12.86 2.5 12.5867 2.5Z" fill="#292D32"/>
<path id="Vector_2" d="M9.58666 14.5H3.41333C3.14 14.5 2.91333 14.2733 2.91333 14C2.91333 13.7267 3.14 13.5 3.41333 13.5H9.58C9.85333 13.5 10.08 13.7267 10.08 14C10.08 14.2733 9.86 14.5 9.58666 14.5Z" fill="#001010"/>
<path id="Vector_3" d="M6.50002 14.5C6.46002 14.5 6.42002 14.4934 6.38002 14.4867C6.11336 14.42 5.94669 14.1467 6.01336 13.88L9.01336 1.88002C9.08002 1.61336 9.34669 1.44669 9.62002 1.51336C9.88669 1.58002 10.0534 1.85336 9.98669 2.12002L6.98669 14.12C6.92669 14.3467 6.72669 14.5 6.50002 14.5Z" fill="#001010"/>
</g>
</g>
</svg>
