<svg width="16" height="17" viewBox="0 0 16 17" fill="none" xmlns="http://www.w3.org/2000/svg">
<path d="M10.7934 2.01514H5.20671C2.78004 2.01514 1.33337 3.4618 1.33337 5.88847V11.4685C1.33337 13.9018 2.78004 15.3485 5.20671 15.3485H10.7867C13.2134 15.3485 14.66 13.9018 14.66 11.4751V5.88847C14.6667 3.4618 13.22 2.01514 10.7934 2.01514ZM11.1867 7.14847L7.40671 10.9285C7.31337 11.0218 7.18671 11.0751 7.05337 11.0751C6.92004 11.0751 6.79338 11.0218 6.70004 10.9285L4.81337 9.0418C4.62004 8.84847 4.62004 8.52847 4.81337 8.33514C5.00671 8.1418 5.32671 8.1418 5.52004 8.33514L7.05337 9.86847L10.48 6.4418C10.6734 6.24847 10.9934 6.24847 11.1867 6.4418C11.38 6.63514 11.38 6.94847 11.1867 7.14847Z" fill="#055962"/>
</svg>
