<svg width="23" height="22" viewBox="0 0 23 22" fill="none" xmlns="http://www.w3.org/2000/svg">
<g id="vuesax/bulk/tick-circle">
<g id="tick-circle">
<path id="Vector" opacity="0.4" d="M11.7497 20.1668C16.8123 20.1668 20.9163 16.0628 20.9163 11.0002C20.9163 5.93755 16.8123 1.8335 11.7497 1.8335C6.68706 1.8335 2.58301 5.93755 2.58301 11.0002C2.58301 16.0628 6.68706 20.1668 11.7497 20.1668Z" fill="#61B42D"/>
<path id="Vector_2" d="M10.4483 14.2816C10.265 14.2816 10.0908 14.2083 9.96249 14.08L7.36832 11.4858C7.10249 11.22 7.10249 10.78 7.36832 10.5141C7.63415 10.2483 8.07415 10.2483 8.33999 10.5141L10.4483 12.6225L15.16 7.9108C15.4258 7.64497 15.8658 7.64497 16.1317 7.9108C16.3975 8.17663 16.3975 8.61663 16.1317 8.88247L10.9342 14.08C10.8058 14.2083 10.6317 14.2816 10.4483 14.2816Z" fill="#61B42D"/>
</g>
</g>
</svg>
