<svg width="25" height="24" viewBox="0 0 25 24" fill="none" xmlns="http://www.w3.org/2000/svg">
<g id="vuesax/bulk/ticket-star">
<g id="ticket-star">
<path id="Vector" opacity="0.4" d="M22.3779 9.20999V14.79C22.3779 16.8224 22.0599 17.9759 21.3868 18.6489C20.7138 19.322 19.5603 19.64 17.5279 19.64H11.2879V17.12C11.2879 16.6416 10.9988 16.2229 10.5879 16.0312V7.9688C10.9988 7.77705 11.2879 7.35836 11.2879 6.87999V4.35999H17.5279C19.5603 4.35999 20.7138 4.678 21.3868 5.35104C22.0599 6.02408 22.3779 7.17758 22.3779 9.20999Z" fill="#FFFFFE" stroke="#FFFFFE"/>
<path id="Vector_2" d="M19.0035 11.5359L19.0034 11.5358L18.9966 11.5426L18.0866 12.4326L18.0592 12.4594L18.0362 12.49C17.9613 12.5898 17.8596 12.7803 17.9042 13.0196L18.1231 14.2832C18.1306 14.3299 18.1137 14.375 18.0696 14.4075C18.0327 14.4347 17.9878 14.4379 17.9482 14.4171L17.9475 14.4167L16.7975 13.8167L16.7975 13.8167L16.7898 13.8128C16.6862 13.761 16.5813 13.745 16.4962 13.745C16.4111 13.745 16.3061 13.761 16.2026 13.8128L16.2025 13.8127L16.1949 13.8167L15.0449 14.4167L15.0448 14.4166L15.0333 14.4229C15.0329 14.4232 15.0206 14.43 14.9862 14.43C14.9669 14.43 14.949 14.4266 14.9203 14.4056L14.9097 14.3979L14.8987 14.3908C14.8896 14.3849 14.8811 14.3757 14.8746 14.3599C14.8678 14.3429 14.8645 14.3202 14.8688 14.2957L14.8688 14.2954L15.0883 13.0283C15.1129 12.893 15.1125 12.6185 14.8894 12.4267L13.9739 11.5407L13.9739 11.5407L13.9689 11.5359C13.9448 11.5133 13.9277 11.4748 13.9435 11.4191C13.9566 11.382 13.9972 11.3502 14.0308 11.3458L14.0309 11.3459L14.0396 11.3446L15.2977 11.1578C15.5107 11.1399 15.7209 11.0116 15.8203 10.7896L16.3811 9.6482C16.4064 9.60281 16.4466 9.58002 16.4962 9.58002C16.5176 9.58002 16.5402 9.58631 16.5594 9.59805C16.5782 9.60948 16.5891 9.62311 16.5947 9.63498L16.5947 9.635L16.5974 9.64052L17.1674 10.8005L17.1674 10.8005L17.169 10.8036C17.2643 10.9943 17.4413 11.1129 17.6281 11.1503L17.6404 11.1528L17.6528 11.1546L18.9328 11.3446L18.9327 11.3447L18.9442 11.3462C18.9704 11.3494 18.9873 11.3586 18.9982 11.3678C19.0091 11.3769 19.0205 11.3915 19.0278 11.4156L19.0278 11.4156L19.0297 11.4216C19.0435 11.465 19.0284 11.5125 19.0035 11.5359ZM16.5662 14.26L17.7162 14.86L14.3762 14.21C14.3362 14.44 14.4262 14.68 14.6262 14.81C14.7362 14.89 14.8562 14.93 14.9862 14.93C15.0862 14.93 15.1862 14.91 15.2762 14.86L16.4262 14.26C16.4662 14.24 16.5262 14.24 16.5662 14.26Z" fill="#FFFFFE" stroke="#FFFFFE"/>
<path id="Vector_3" d="M10.0876 7.57999V16.42C9.70756 16.42 9.38756 16.74 9.38756 17.12V20.14H8.22756C4.27756 20.14 2.97756 18.96 2.88756 15.28C2.87756 15.09 2.95756 14.91 3.08756 14.78C3.21756 14.64 3.40756 14.57 3.58756 14.57C4.98756 14.57 6.13756 13.42 6.13756 12.01C6.13756 10.6 4.98756 9.43999 3.58756 9.43999C3.38756 9.43999 3.21756 9.36999 3.08756 9.22999C2.95756 9.09999 2.87756 8.90999 2.88756 8.72999C2.97756 5.03999 4.27756 3.85999 8.22756 3.85999H9.38756V6.87999C9.38756 7.26999 9.70756 7.57999 10.0876 7.57999Z" fill="#FFFFFE"/>
</g>
</g>
</svg>
