<svg width="16" height="16" viewBox="0 0 16 16" fill="none" xmlns="http://www.w3.org/2000/svg">
<path d="M10.7933 1.33337H5.20659C2.77992 1.33337 1.33325 2.78004 1.33325 5.20671V10.7867C1.33325 13.22 2.77992 14.6667 5.20659 14.6667H10.7866C13.2133 14.6667 14.6599 13.22 14.6599 10.7934V5.20671C14.6666 2.78004 13.2199 1.33337 10.7933 1.33337ZM11.1866 6.46671L7.40659 10.2467C7.31325 10.34 7.18659 10.3934 7.05325 10.3934C6.91992 10.3934 6.79325 10.34 6.69992 10.2467L4.81325 8.36004C4.61992 8.16671 4.61992 7.84671 4.81325 7.65337C5.00659 7.46004 5.32659 7.46004 5.51992 7.65337L7.05325 9.18671L10.4799 5.76004C10.6733 5.56671 10.9933 5.56671 11.1866 5.76004C11.3799 5.95337 11.3799 6.26671 11.1866 6.46671Z" fill="#866AD2"/>
</svg>
