<svg width="16" height="17" viewBox="0 0 16 17" fill="none" xmlns="http://www.w3.org/2000/svg">
<path d="M10.7933 2.01514H5.20665C2.77998 2.01514 1.33331 3.4618 1.33331 5.88847V11.4685C1.33331 13.9018 2.77998 15.3485 5.20665 15.3485H10.7866C13.2133 15.3485 14.66 13.9018 14.66 11.4751V5.88847C14.6666 3.4618 13.22 2.01514 10.7933 2.01514ZM11.1866 7.14847L7.40665 10.9285C7.31331 11.0218 7.18665 11.0751 7.05331 11.0751C6.91998 11.0751 6.79331 11.0218 6.69998 10.9285L4.81331 9.0418C4.61998 8.84847 4.61998 8.52847 4.81331 8.33514C5.00665 8.1418 5.32665 8.1418 5.51998 8.33514L7.05331 9.86847L10.48 6.4418C10.6733 6.24847 10.9933 6.24847 11.1866 6.4418C11.38 6.63514 11.38 6.94847 11.1866 7.14847Z" fill="#4A3A74"/>
</svg>
