<svg width="16" height="16" viewBox="0 0 16 16" fill="none" xmlns="http://www.w3.org/2000/svg">
<g id="vuesax/bulk/timer">
<g id="timer">
<path id="Vector" opacity="0.4" d="M13.2797 8.88645C13.2797 11.8025 10.9158 14.1664 7.99973 14.1664C5.08366 14.1664 2.71973 11.8025 2.71973 8.88645C2.71973 5.97038 5.08366 3.60645 7.99973 3.60645C10.9158 3.60645 13.2797 5.97038 13.2797 8.88645Z" fill="#001010" stroke="#001010"/>
<g id="Vector_2">
<mask id="path-2-inside-1_1771_5626" fill="white">
<path d="M8 9.16683C7.72667 9.16683 7.5 8.94016 7.5 8.66683V5.3335C7.5 5.06016 7.72667 4.8335 8 4.8335C8.27333 4.8335 8.5 5.06016 8.5 5.3335V8.66683C8.5 8.94016 8.27333 9.16683 8 9.16683Z"/>
</mask>
<path d="M8 9.16683C7.72667 9.16683 7.5 8.94016 7.5 8.66683V5.3335C7.5 5.06016 7.72667 4.8335 8 4.8335C8.27333 4.8335 8.5 5.06016 8.5 5.3335V8.66683C8.5 8.94016 8.27333 9.16683 8 9.16683Z" fill="#001010"/>
<path d="M8 8.16683C8.27895 8.16683 8.5 8.38788 8.5 8.66683H6.5C6.5 9.49245 7.17438 10.1668 8 10.1668V8.16683ZM8.5 8.66683V5.3335H6.5V8.66683H8.5ZM8.5 5.3335C8.5 5.61245 8.27895 5.8335 8 5.8335V3.8335C7.17438 3.8335 6.5 4.50788 6.5 5.3335H8.5ZM8 5.8335C7.72105 5.8335 7.5 5.61245 7.5 5.3335H9.5C9.5 4.50788 8.82562 3.8335 8 3.8335V5.8335ZM7.5 5.3335V8.66683H9.5V5.3335H7.5ZM7.5 8.66683C7.5 8.38788 7.72105 8.16683 8 8.16683V10.1668C8.82562 10.1668 9.5 9.49245 9.5 8.66683H7.5Z" fill="#001010" mask="url(#path-2-inside-1_1771_5626)"/>
</g>
<g id="Vector_3">
<mask id="path-4-inside-2_1771_5626" fill="white">
<path d="M9.92708 2.30016H6.07375C5.80708 2.30016 5.59375 2.08683 5.59375 1.82016C5.59375 1.5535 5.80708 1.3335 6.07375 1.3335H9.92708C10.1937 1.3335 10.4071 1.54683 10.4071 1.8135C10.4071 2.08016 10.1937 2.30016 9.92708 2.30016Z"/>
</mask>
<path d="M9.92708 2.30016H6.07375C5.80708 2.30016 5.59375 2.08683 5.59375 1.82016C5.59375 1.5535 5.80708 1.3335 6.07375 1.3335H9.92708C10.1937 1.3335 10.4071 1.54683 10.4071 1.8135C10.4071 2.08016 10.1937 2.30016 9.92708 2.30016Z" fill="#001010"/>
<path d="M9.92708 1.30016H6.07375V3.30016H9.92708V1.30016ZM6.07375 1.30016C6.35937 1.30016 6.59375 1.53455 6.59375 1.82016H4.59375C4.59375 2.63911 5.2548 3.30016 6.07375 3.30016V1.30016ZM6.59375 1.82016C6.59375 2.08774 6.37724 2.3335 6.07375 2.3335V0.333496C5.23693 0.333496 4.59375 1.01926 4.59375 1.82016H6.59375ZM6.07375 2.3335H9.92708V0.333496H6.07375V2.3335ZM9.92708 2.3335C9.64146 2.3335 9.40708 2.09911 9.40708 1.8135H11.4071C11.4071 0.994546 10.746 0.333496 9.92708 0.333496V2.3335ZM9.40708 1.8135C9.40708 1.54592 9.62359 1.30016 9.92708 1.30016V3.30016C10.7639 3.30016 11.4071 2.6144 11.4071 1.8135H9.40708Z" fill="#001010" mask="url(#path-4-inside-2_1771_5626)"/>
</g>
</g>
</g>
</svg>
