<svg width="33" height="32" viewBox="0 0 33 32" fill="none" xmlns="http://www.w3.org/2000/svg">
<g id="vuesax/bulk/timer">
<g id="timer">
<path id="Vector" opacity="0.4" d="M25.2166 26.24C24.4833 28.12 22.6966 29.3333 20.6833 29.3333H12.8166C10.79 29.3333 9.01664 28.12 8.28331 26.24C7.54997 24.3467 8.05664 22.2533 9.54997 20.8933L14.95 16H18.5633L23.95 20.8933C25.4433 22.2533 25.9366 24.3467 25.2166 26.24Z" fill="#7A60BF"/>
<path id="Vector_2" d="M19.177 24.1866H14.3237C13.817 24.1866 13.417 23.7733 13.417 23.28C13.417 22.7733 13.8303 22.3733 14.3237 22.3733H19.177C19.6837 22.3733 20.0837 22.7866 20.0837 23.28C20.0837 23.7733 19.6703 24.1866 19.177 24.1866Z" fill="#7A60BF"/>
<path id="Vector_3" d="M25.2162 5.75996C24.4829 3.87996 22.6962 2.66663 20.6829 2.66663H12.8162C10.8029 2.66663 9.01623 3.87996 8.2829 5.75996C7.5629 7.65329 8.05623 9.74663 9.5629 11.1066L14.9496 16H18.5629L23.9496 11.1066C25.4429 9.74663 25.9362 7.65329 25.2162 5.75996ZM19.1762 9.63996H14.3229C13.8162 9.63996 13.4162 9.22663 13.4162 8.73329C13.4162 8.23996 13.8296 7.82663 14.3229 7.82663H19.1762C19.6829 7.82663 20.0829 8.23996 20.0829 8.73329C20.0829 9.22663 19.6696 9.63996 19.1762 9.63996Z" fill="#7A60BF"/>
</g>
</g>
</svg>
