<svg width="22" height="22" viewBox="0 0 22 22" fill="none" xmlns="http://www.w3.org/2000/svg">
<path d="M19.3135 4.79415C17.8377 4.64748 16.3619 4.53748 14.8769 4.45498V4.44581L14.6752 3.25415C14.5377 2.41081 14.336 1.14581 12.191 1.14581H9.78937C7.65354 1.14581 7.45187 2.35581 7.3052 3.24498L7.1127 4.41831C6.2602 4.47331 5.4077 4.52831 4.5552 4.61081L2.6852 4.79415C2.3002 4.83081 2.0252 5.16998 2.06187 5.54581C2.09854 5.92165 2.42854 6.19665 2.81354 6.15998L4.68354 5.97665C9.48687 5.49998 14.3269 5.68331 19.1852 6.16915C19.2127 6.16915 19.231 6.16915 19.2585 6.16915C19.6069 6.16915 19.9094 5.90331 19.946 5.54581C19.9735 5.16998 19.6985 4.83081 19.3135 4.79415Z" fill="#C7245A"/>
<path opacity="0.3991" d="M17.6271 7.46169C17.4071 7.23252 17.1046 7.10419 16.7929 7.10419H5.20627C4.89461 7.10419 4.58294 7.23252 4.37211 7.46169C4.16127 7.69085 4.04211 8.00252 4.06044 8.32335L4.62877 17.7284C4.72961 19.1217 4.85794 20.8634 8.05711 20.8634H13.9421C17.1413 20.8634 17.2696 19.1309 17.3704 17.7284L17.9388 8.33252C17.9571 8.00252 17.8379 7.69085 17.6271 7.46169Z" fill="#C7245A"/>
<path fill-rule="evenodd" clip-rule="evenodd" d="M8.78125 15.5833C8.78125 15.2036 9.08905 14.8958 9.46875 14.8958H12.5212C12.9009 14.8958 13.2087 15.2036 13.2087 15.5833C13.2087 15.963 12.9009 16.2708 12.5212 16.2708H9.46875C9.08905 16.2708 8.78125 15.963 8.78125 15.5833Z" fill="#C7245A"/>
<path fill-rule="evenodd" clip-rule="evenodd" d="M8.02148 11.9167C8.02148 11.537 8.32929 11.2292 8.70898 11.2292H13.2923C13.672 11.2292 13.9798 11.537 13.9798 11.9167C13.9798 12.2964 13.672 12.6042 13.2923 12.6042H8.70898C8.32929 12.6042 8.02148 12.2964 8.02148 11.9167Z" fill="#C7245A"/>
</svg>
