<svg width="16" height="16" viewBox="0 0 16 16" fill="none" xmlns="http://www.w3.org/2000/svg">
<path d="M14.0451 3.48659C12.9718 3.37992 11.8985 3.29992 10.8185 3.23992V3.23325L10.6718 2.36659C10.5718 1.75325 10.4251 0.833252 8.86514 0.833252H7.11848C5.56514 0.833252 5.41848 1.71325 5.31181 2.35992L5.17181 3.21325C4.55181 3.25325 3.93181 3.29325 3.31181 3.35325L1.95181 3.48659C1.67181 3.51325 1.47181 3.75992 1.49848 4.03325C1.52514 4.30659 1.76514 4.50659 2.04514 4.47992L3.40514 4.34659C6.89848 3.99992 10.4185 4.13325 13.9518 4.48659C13.9718 4.48659 13.9851 4.48659 14.0051 4.48659C14.2585 4.48659 14.4785 4.29325 14.5051 4.03325C14.5251 3.75992 14.3251 3.51325 14.0451 3.48659Z" fill="#C7245A"/>
<path opacity="0.3991" d="M12.8211 5.42675C12.6611 5.26008 12.4411 5.16675 12.2145 5.16675H3.7878C3.56114 5.16675 3.33447 5.26008 3.18114 5.42675C3.0278 5.59341 2.94114 5.82008 2.95447 6.05341L3.3678 12.8934C3.44114 13.9067 3.53447 15.1734 5.86114 15.1734H10.1411C12.4678 15.1734 12.5611 13.9134 12.6345 12.8934L13.0478 6.06008C13.0611 5.82008 12.9745 5.59341 12.8211 5.42675Z" fill="#C7245A"/>
<path fill-rule="evenodd" clip-rule="evenodd" d="M6.38672 11.3333C6.38672 11.0571 6.61058 10.8333 6.88672 10.8333H9.10672C9.38286 10.8333 9.60672 11.0571 9.60672 11.3333C9.60672 11.6094 9.38286 11.8333 9.10672 11.8333H6.88672C6.61058 11.8333 6.38672 11.6094 6.38672 11.3333Z" fill="#C7245A"/>
<path fill-rule="evenodd" clip-rule="evenodd" d="M5.83203 8.66675C5.83203 8.39061 6.05589 8.16675 6.33203 8.16675H9.66536C9.94151 8.16675 10.1654 8.39061 10.1654 8.66675C10.1654 8.94289 9.94151 9.16675 9.66536 9.16675H6.33203C6.05589 9.16675 5.83203 8.94289 5.83203 8.66675Z" fill="#C7245A"/>
</svg>
