<svg width="24" height="25" viewBox="0 0 24 25" fill="none" xmlns="http://www.w3.org/2000/svg">
<rect x="0.5" y="1" width="23" height="23" rx="5.5" fill="#FFFFFE"/>
<rect x="0.5" y="1" width="23" height="23" rx="5.5" stroke="#FCFEF9"/>
<path opacity="0.4" d="M12.0003 12.5C13.8413 12.5 15.3337 11.0077 15.3337 9.16671C15.3337 7.32576 13.8413 5.83337 12.0003 5.83337C10.1594 5.83337 8.66699 7.32576 8.66699 9.16671C8.66699 11.0077 10.1594 12.5 12.0003 12.5Z" fill="#001010"/>
<path d="M12.0004 14.1666C8.66043 14.1666 5.94043 16.4066 5.94043 19.1666C5.94043 19.3533 6.0871 19.5 6.27376 19.5H17.7271C17.9138 19.5 18.0604 19.3533 18.0604 19.1666C18.0604 16.4066 15.3404 14.1666 12.0004 14.1666Z" fill="#001010"/>
</svg>
