<svg width="25" height="24" viewBox="0 0 25 24" fill="none" xmlns="http://www.w3.org/2000/svg">
<path d="M17.6545 3.38965C19.0131 3.38965 20.1144 4.49101 20.1144 5.84961C20.1144 7.20823 19.0131 8.30957 17.6545 8.30957C16.2959 8.30955 15.1945 7.20822 15.1945 5.84961C15.1945 4.49102 16.2959 3.38967 17.6545 3.38965Z" fill="#FFFFFE" stroke="#FFFFFE"/>
<path d="M6.5745 8.80965C8.20926 8.80965 9.5345 7.48441 9.5345 5.84965C9.5345 4.21489 8.20926 2.88965 6.5745 2.88965C4.93974 2.88965 3.6145 4.21489 3.6145 5.84965C3.6145 7.48441 4.93974 8.80965 6.5745 8.80965Z" fill="#FFFFFE"/>
<path d="M17.6545 21.1104C19.2893 21.1104 20.6145 19.7852 20.6145 18.1504C20.6145 16.5157 19.2893 15.1904 17.6545 15.1904C16.0198 15.1904 14.6945 16.5157 14.6945 18.1504C14.6945 19.7852 16.0198 21.1104 17.6545 21.1104Z" fill="#FFFFFE"/>
<path d="M6.5745 21.1104C8.20926 21.1104 9.5345 19.7852 9.5345 18.1504C9.5345 16.5157 8.20926 15.1904 6.5745 15.1904C4.93974 15.1904 3.6145 16.5157 3.6145 18.1504C3.6145 19.7852 4.93974 21.1104 6.5745 21.1104Z" fill="#FFFFFE"/>
</svg>
