<svg width="16" height="16" viewBox="0 0 16 16" fill="none" xmlns="http://www.w3.org/2000/svg">
<path d="M9.76666 7.64642L9.41311 7.99997L9.76666 8.35352L14.3667 12.9535C14.7514 13.3383 14.7514 13.9817 14.3667 14.3664C14.1654 14.5677 13.9148 14.66 13.6602 14.66C13.4057 14.66 13.1551 14.5677 12.9538 14.3664L8.35377 9.76642L8.00021 9.41286L7.64666 9.76642L3.04666 14.3664C2.84537 14.5677 2.59476 14.66 2.34021 14.66C2.08567 14.66 1.83506 14.5677 1.63377 14.3664L1.28144 14.7187L1.63377 14.3664C1.24903 13.9817 1.24903 13.3383 1.63377 12.9535L6.23377 8.35352L6.58732 7.99997L6.23377 7.64642L1.63377 3.04642L1.28021 3.39997L1.63377 3.04642C1.24903 2.66168 1.24903 2.01826 1.63377 1.63352C2.01851 1.24879 2.66192 1.24879 3.04666 1.63352L3.40021 1.27997L3.04666 1.63352L7.64666 6.23352L8.00021 6.58708L8.35377 6.23352L12.9538 1.63352C13.3385 1.24879 13.9819 1.24879 14.3667 1.63352C14.7514 2.01826 14.7514 2.66168 14.3667 3.04642L9.76666 7.64642Z" fill="#FFFFFE" stroke="#FFFFFE"/>
</svg>
