<svg width="16" height="16" viewBox="0 0 16 16" fill="none" xmlns="http://www.w3.org/2000/svg">
<g id="vuesax/bulk/video">
<g id="video">
<path id="Vector" opacity="0.4" d="M8.66667 2.16663H4.66667C2.38667 2.16663 1.5 3.05329 1.5 5.33329V10.6666C1.5 12.2 2.33333 13.8333 4.66667 13.8333H8.66667C10.9467 13.8333 11.8333 12.9466 11.8333 10.6666V5.33329C11.8333 3.05329 10.9467 2.16663 8.66667 2.16663Z" fill="#001010"/>
<path id="Vector_2" d="M7.66666 7.58662C8.35886 7.58662 8.92 7.02549 8.92 6.33329C8.92 5.64109 8.35886 5.07996 7.66666 5.07996C6.97447 5.07996 6.41333 5.64109 6.41333 6.33329C6.41333 7.02549 6.97447 7.58662 7.66666 7.58662Z" fill="#001010"/>
<path id="Vector_3" d="M14.4334 4.11337C14.1601 3.97337 13.5867 3.81337 12.8067 4.36003L11.8201 5.05337C11.8267 5.1467 11.8334 5.23337 11.8334 5.33337V10.6667C11.8334 10.7667 11.8201 10.8534 11.8201 10.9467L12.8067 11.64C13.2201 11.9334 13.5801 12.0267 13.8667 12.0267C14.1134 12.0267 14.3067 11.96 14.4334 11.8934C14.7067 11.7534 15.1667 11.3734 15.1667 10.42V5.5867C15.1667 4.63337 14.7067 4.25337 14.4334 4.11337Z" fill="#001010"/>
</g>
</g>
</svg>
